%TF.GenerationSoftware,KiCad,Pcbnew,9.0.6*%
%TF.CreationDate,2025-12-28T16:01:46+05:30*%
%TF.ProjectId,Temp,54656d70-2e6b-4696-9361-645f70636258,rev?*%
%TF.SameCoordinates,Original*%
%TF.FileFunction,Legend,Top*%
%TF.FilePolarity,Positive*%
%FSLAX46Y46*%
G04 Gerber Fmt 4.6, Leading zero omitted, Abs format (unit mm)*
G04 Created by KiCad (PCBNEW 9.0.6) date 2025-12-28 16:01:46*
%MOMM*%
%LPD*%
G01*
G04 APERTURE LIST*
%ADD10C,0.200000*%
%ADD11C,0.150000*%
%ADD12C,0.120000*%
G04 APERTURE END LIST*
D10*
G36*
X144230542Y-53439944D02*
G01*
X144223931Y-53539157D01*
X144205596Y-53620443D01*
X144177158Y-53686931D01*
X144139317Y-53741156D01*
X144100919Y-53777722D01*
X144056391Y-53806440D01*
X144004831Y-53827596D01*
X143944980Y-53840926D01*
X143875291Y-53845631D01*
X143800261Y-53838804D01*
X143732531Y-53818886D01*
X143732531Y-53611158D01*
X143772098Y-53635150D01*
X143814134Y-53649350D01*
X143859598Y-53654145D01*
X143904262Y-53648357D01*
X143939576Y-53632055D01*
X143967836Y-53605166D01*
X143989871Y-53565470D01*
X144004884Y-53508974D01*
X144010601Y-53430357D01*
X144010601Y-52849120D01*
X144230542Y-52849120D01*
X144230542Y-53439944D01*
G37*
G36*
X144533464Y-53017159D02*
G01*
X144498316Y-53013333D01*
X144468894Y-53002433D01*
X144443949Y-52984614D01*
X144424498Y-52961089D01*
X144413051Y-52934796D01*
X144409145Y-52904747D01*
X144413126Y-52873868D01*
X144424632Y-52847755D01*
X144443949Y-52825245D01*
X144468770Y-52808425D01*
X144498196Y-52798061D01*
X144533464Y-52794410D01*
X144569177Y-52798084D01*
X144598677Y-52808468D01*
X144623285Y-52825245D01*
X144642419Y-52847732D01*
X144653832Y-52873846D01*
X144657784Y-52904747D01*
X144653829Y-52936119D01*
X144642408Y-52962703D01*
X144623285Y-52985652D01*
X144598628Y-53002821D01*
X144569129Y-53013416D01*
X144533464Y-53017159D01*
G37*
G36*
X144640015Y-53830000D02*
G01*
X144424166Y-53830000D01*
X144424166Y-53130488D01*
X144640015Y-53130488D01*
X144640015Y-53830000D01*
G37*
G36*
X145244638Y-53822184D02*
G01*
X145211710Y-53834110D01*
X145165002Y-53842438D01*
X145100535Y-53845631D01*
X145036407Y-53840173D01*
X144985998Y-53825194D01*
X144946427Y-53801947D01*
X144915655Y-53770463D01*
X144892707Y-53729554D01*
X144877806Y-53676970D01*
X144872351Y-53609631D01*
X144872351Y-53290711D01*
X144758961Y-53290711D01*
X144758961Y-53130488D01*
X144872351Y-53130488D01*
X144872351Y-52980523D01*
X145087529Y-52919462D01*
X145087529Y-53130488D01*
X145244638Y-53130488D01*
X145244638Y-53290711D01*
X145087529Y-53290711D01*
X145087529Y-53572568D01*
X145091844Y-53615733D01*
X145103109Y-53645327D01*
X145120013Y-53665089D01*
X145143030Y-53677133D01*
X145174296Y-53681500D01*
X145208122Y-53676842D01*
X145244638Y-53661960D01*
X145244638Y-53822184D01*
G37*
G36*
X145749771Y-53121172D02*
G01*
X145812990Y-53138950D01*
X145866063Y-53167216D01*
X145910689Y-53206081D01*
X145946165Y-53253787D01*
X145972186Y-53309795D01*
X145988590Y-53375703D01*
X145994403Y-53453560D01*
X145994403Y-53544724D01*
X145538096Y-53544724D01*
X145546599Y-53590519D01*
X145563539Y-53626120D01*
X145588603Y-53653747D01*
X145622937Y-53674495D01*
X145668958Y-53688151D01*
X145730071Y-53693224D01*
X145805461Y-53686879D01*
X145872592Y-53668520D01*
X145932976Y-53638513D01*
X145932976Y-53793852D01*
X145866258Y-53821284D01*
X145783405Y-53839143D01*
X145680917Y-53845631D01*
X145596578Y-53839085D01*
X145526195Y-53820706D01*
X145467262Y-53791660D01*
X145417868Y-53752086D01*
X145378212Y-53702705D01*
X145349172Y-53644073D01*
X145330840Y-53574350D01*
X145324323Y-53491113D01*
X145330713Y-53411856D01*
X145536753Y-53411856D01*
X145794307Y-53411856D01*
X145788334Y-53353331D01*
X145772690Y-53313040D01*
X145749095Y-53285981D01*
X145716777Y-53269393D01*
X145672674Y-53263356D01*
X145639929Y-53267995D01*
X145610340Y-53281839D01*
X145582854Y-53305915D01*
X145561179Y-53336045D01*
X145545787Y-53371035D01*
X145536753Y-53411856D01*
X145330713Y-53411856D01*
X145331247Y-53405233D01*
X145350867Y-53332238D01*
X145382213Y-53269828D01*
X145425378Y-53216278D01*
X145479062Y-53171757D01*
X145537630Y-53140409D01*
X145602139Y-53121393D01*
X145674078Y-53114856D01*
X145749771Y-53121172D01*
G37*
G36*
X146077323Y-53810033D02*
G01*
X146077323Y-53634605D01*
X146131309Y-53662530D01*
X146183569Y-53681683D01*
X146236046Y-53693420D01*
X146283647Y-53697131D01*
X146337684Y-53692891D01*
X146374139Y-53682049D01*
X146393206Y-53669604D01*
X146403746Y-53654570D01*
X146407295Y-53636071D01*
X146403534Y-53617358D01*
X146392274Y-53602060D01*
X146375702Y-53589661D01*
X146353684Y-53578246D01*
X146302088Y-53559867D01*
X146248110Y-53541488D01*
X146174654Y-53507843D01*
X146145027Y-53488000D01*
X146121348Y-53465956D01*
X146102475Y-53440398D01*
X146088558Y-53410879D01*
X146080319Y-53377879D01*
X146077323Y-53336690D01*
X146083996Y-53281195D01*
X146102908Y-53236001D01*
X146132724Y-53197729D01*
X146171235Y-53166941D01*
X146216372Y-53143868D01*
X146268932Y-53127435D01*
X146324692Y-53118040D01*
X146383360Y-53114856D01*
X146477637Y-53122062D01*
X146571915Y-53142944D01*
X146571915Y-53310251D01*
X146529596Y-53289782D01*
X146484110Y-53275080D01*
X146437387Y-53266239D01*
X146392274Y-53263356D01*
X146352280Y-53266959D01*
X146319124Y-53277461D01*
X146296592Y-53295108D01*
X146290463Y-53306627D01*
X146288410Y-53319654D01*
X146291509Y-53337427D01*
X146300683Y-53352322D01*
X146332801Y-53375830D01*
X146376887Y-53393476D01*
X146425064Y-53409474D01*
X146502916Y-53442142D01*
X146535762Y-53461702D01*
X146562695Y-53483663D01*
X146584743Y-53509508D01*
X146600980Y-53539473D01*
X146610753Y-53573337D01*
X146614291Y-53615676D01*
X146607228Y-53674310D01*
X146587302Y-53721495D01*
X146555964Y-53761183D01*
X146515556Y-53792936D01*
X146468200Y-53816414D01*
X146412363Y-53833053D01*
X146353247Y-53842448D01*
X146291158Y-53845631D01*
X146214821Y-53841538D01*
X146143761Y-53829571D01*
X146077323Y-53810033D01*
G37*
G36*
X147410095Y-53830000D02*
G01*
X147194918Y-53830000D01*
X147194918Y-53432616D01*
X147189127Y-53370705D01*
X147174144Y-53328799D01*
X147152017Y-53301315D01*
X147122448Y-53284876D01*
X147082871Y-53278988D01*
X147046668Y-53283886D01*
X147016187Y-53298069D01*
X146989998Y-53322035D01*
X146970649Y-53352440D01*
X146958680Y-53388377D01*
X146954460Y-53431273D01*
X146954460Y-53830000D01*
X146738611Y-53830000D01*
X146738611Y-52794410D01*
X146954460Y-52794410D01*
X146954460Y-53234535D01*
X146957208Y-53234535D01*
X146992305Y-53190246D01*
X147030778Y-53157151D01*
X147073018Y-53133865D01*
X147119835Y-53119727D01*
X147172386Y-53114856D01*
X147236863Y-53120987D01*
X147288331Y-53137997D01*
X147329581Y-53164886D01*
X147362424Y-53202154D01*
X147387459Y-53251727D01*
X147403985Y-53316721D01*
X147410095Y-53401170D01*
X147410095Y-53830000D01*
G37*
D11*
X105954819Y-78785713D02*
X105954819Y-78214285D01*
X106954819Y-78499999D02*
X105954819Y-78499999D01*
X106954819Y-77880951D02*
X105954819Y-77880951D01*
X106431009Y-77880951D02*
X106431009Y-77309523D01*
X106954819Y-77309523D02*
X105954819Y-77309523D01*
X106954819Y-76309523D02*
X106954819Y-76880951D01*
X106954819Y-76595237D02*
X105954819Y-76595237D01*
X105954819Y-76595237D02*
X106097676Y-76690475D01*
X106097676Y-76690475D02*
X106192914Y-76785713D01*
X106192914Y-76785713D02*
X106240533Y-76880951D01*
X111624819Y-69069166D02*
X111148628Y-69402499D01*
X111624819Y-69640594D02*
X110624819Y-69640594D01*
X110624819Y-69640594D02*
X110624819Y-69259642D01*
X110624819Y-69259642D02*
X110672438Y-69164404D01*
X110672438Y-69164404D02*
X110720057Y-69116785D01*
X110720057Y-69116785D02*
X110815295Y-69069166D01*
X110815295Y-69069166D02*
X110958152Y-69069166D01*
X110958152Y-69069166D02*
X111053390Y-69116785D01*
X111053390Y-69116785D02*
X111101009Y-69164404D01*
X111101009Y-69164404D02*
X111148628Y-69259642D01*
X111148628Y-69259642D02*
X111148628Y-69640594D01*
X111624819Y-68116785D02*
X111624819Y-68688213D01*
X111624819Y-68402499D02*
X110624819Y-68402499D01*
X110624819Y-68402499D02*
X110767676Y-68497737D01*
X110767676Y-68497737D02*
X110862914Y-68592975D01*
X110862914Y-68592975D02*
X110910533Y-68688213D01*
X108804819Y-59166666D02*
X108328628Y-59499999D01*
X108804819Y-59738094D02*
X107804819Y-59738094D01*
X107804819Y-59738094D02*
X107804819Y-59357142D01*
X107804819Y-59357142D02*
X107852438Y-59261904D01*
X107852438Y-59261904D02*
X107900057Y-59214285D01*
X107900057Y-59214285D02*
X107995295Y-59166666D01*
X107995295Y-59166666D02*
X108138152Y-59166666D01*
X108138152Y-59166666D02*
X108233390Y-59214285D01*
X108233390Y-59214285D02*
X108281009Y-59261904D01*
X108281009Y-59261904D02*
X108328628Y-59357142D01*
X108328628Y-59357142D02*
X108328628Y-59738094D01*
X108138152Y-58309523D02*
X108804819Y-58309523D01*
X107757200Y-58547618D02*
X108471485Y-58785713D01*
X108471485Y-58785713D02*
X108471485Y-58166666D01*
X124261905Y-83984819D02*
X124261905Y-82984819D01*
X124261905Y-82984819D02*
X124500000Y-82984819D01*
X124500000Y-82984819D02*
X124642857Y-83032438D01*
X124642857Y-83032438D02*
X124738095Y-83127676D01*
X124738095Y-83127676D02*
X124785714Y-83222914D01*
X124785714Y-83222914D02*
X124833333Y-83413390D01*
X124833333Y-83413390D02*
X124833333Y-83556247D01*
X124833333Y-83556247D02*
X124785714Y-83746723D01*
X124785714Y-83746723D02*
X124738095Y-83841961D01*
X124738095Y-83841961D02*
X124642857Y-83937200D01*
X124642857Y-83937200D02*
X124500000Y-83984819D01*
X124500000Y-83984819D02*
X124261905Y-83984819D01*
X125785714Y-83984819D02*
X125214286Y-83984819D01*
X125500000Y-83984819D02*
X125500000Y-82984819D01*
X125500000Y-82984819D02*
X125404762Y-83127676D01*
X125404762Y-83127676D02*
X125309524Y-83222914D01*
X125309524Y-83222914D02*
X125214286Y-83270533D01*
X119658095Y-84354819D02*
X119658095Y-83354819D01*
X120229523Y-84354819D02*
X119800952Y-83783390D01*
X120229523Y-83354819D02*
X119658095Y-83926247D01*
X145104819Y-62304166D02*
X144628628Y-62637499D01*
X145104819Y-62875594D02*
X144104819Y-62875594D01*
X144104819Y-62875594D02*
X144104819Y-62494642D01*
X144104819Y-62494642D02*
X144152438Y-62399404D01*
X144152438Y-62399404D02*
X144200057Y-62351785D01*
X144200057Y-62351785D02*
X144295295Y-62304166D01*
X144295295Y-62304166D02*
X144438152Y-62304166D01*
X144438152Y-62304166D02*
X144533390Y-62351785D01*
X144533390Y-62351785D02*
X144581009Y-62399404D01*
X144581009Y-62399404D02*
X144628628Y-62494642D01*
X144628628Y-62494642D02*
X144628628Y-62875594D01*
X144104819Y-61970832D02*
X144104819Y-61304166D01*
X144104819Y-61304166D02*
X145104819Y-61732737D01*
X120083333Y-53609580D02*
X120035714Y-53657200D01*
X120035714Y-53657200D02*
X119892857Y-53704819D01*
X119892857Y-53704819D02*
X119797619Y-53704819D01*
X119797619Y-53704819D02*
X119654762Y-53657200D01*
X119654762Y-53657200D02*
X119559524Y-53561961D01*
X119559524Y-53561961D02*
X119511905Y-53466723D01*
X119511905Y-53466723D02*
X119464286Y-53276247D01*
X119464286Y-53276247D02*
X119464286Y-53133390D01*
X119464286Y-53133390D02*
X119511905Y-52942914D01*
X119511905Y-52942914D02*
X119559524Y-52847676D01*
X119559524Y-52847676D02*
X119654762Y-52752438D01*
X119654762Y-52752438D02*
X119797619Y-52704819D01*
X119797619Y-52704819D02*
X119892857Y-52704819D01*
X119892857Y-52704819D02*
X120035714Y-52752438D01*
X120035714Y-52752438D02*
X120083333Y-52800057D01*
X121035714Y-53704819D02*
X120464286Y-53704819D01*
X120750000Y-53704819D02*
X120750000Y-52704819D01*
X120750000Y-52704819D02*
X120654762Y-52847676D01*
X120654762Y-52847676D02*
X120559524Y-52942914D01*
X120559524Y-52942914D02*
X120464286Y-52990533D01*
X139489832Y-86601009D02*
X139632689Y-86648628D01*
X139632689Y-86648628D02*
X139680308Y-86696247D01*
X139680308Y-86696247D02*
X139727927Y-86791485D01*
X139727927Y-86791485D02*
X139727927Y-86934342D01*
X139727927Y-86934342D02*
X139680308Y-87029580D01*
X139680308Y-87029580D02*
X139632689Y-87077200D01*
X139632689Y-87077200D02*
X139537451Y-87124819D01*
X139537451Y-87124819D02*
X139156499Y-87124819D01*
X139156499Y-87124819D02*
X139156499Y-86124819D01*
X139156499Y-86124819D02*
X139489832Y-86124819D01*
X139489832Y-86124819D02*
X139585070Y-86172438D01*
X139585070Y-86172438D02*
X139632689Y-86220057D01*
X139632689Y-86220057D02*
X139680308Y-86315295D01*
X139680308Y-86315295D02*
X139680308Y-86410533D01*
X139680308Y-86410533D02*
X139632689Y-86505771D01*
X139632689Y-86505771D02*
X139585070Y-86553390D01*
X139585070Y-86553390D02*
X139489832Y-86601009D01*
X139489832Y-86601009D02*
X139156499Y-86601009D01*
X140061261Y-86124819D02*
X140727927Y-86124819D01*
X140727927Y-86124819D02*
X140061261Y-87124819D01*
X140061261Y-87124819D02*
X140727927Y-87124819D01*
X141632689Y-87124819D02*
X141061261Y-87124819D01*
X141346975Y-87124819D02*
X141346975Y-86124819D01*
X141346975Y-86124819D02*
X141251737Y-86267676D01*
X141251737Y-86267676D02*
X141156499Y-86362914D01*
X141156499Y-86362914D02*
X141061261Y-86410533D01*
X128304761Y-82694819D02*
X127971428Y-82218628D01*
X127733333Y-82694819D02*
X127733333Y-81694819D01*
X127733333Y-81694819D02*
X128114285Y-81694819D01*
X128114285Y-81694819D02*
X128209523Y-81742438D01*
X128209523Y-81742438D02*
X128257142Y-81790057D01*
X128257142Y-81790057D02*
X128304761Y-81885295D01*
X128304761Y-81885295D02*
X128304761Y-82028152D01*
X128304761Y-82028152D02*
X128257142Y-82123390D01*
X128257142Y-82123390D02*
X128209523Y-82171009D01*
X128209523Y-82171009D02*
X128114285Y-82218628D01*
X128114285Y-82218628D02*
X127733333Y-82218628D01*
X128590476Y-81694819D02*
X128923809Y-82694819D01*
X128923809Y-82694819D02*
X129257142Y-81694819D01*
X130114285Y-82694819D02*
X129542857Y-82694819D01*
X129828571Y-82694819D02*
X129828571Y-81694819D01*
X129828571Y-81694819D02*
X129733333Y-81837676D01*
X129733333Y-81837676D02*
X129638095Y-81932914D01*
X129638095Y-81932914D02*
X129542857Y-81980533D01*
X124504819Y-61571904D02*
X125314342Y-61571904D01*
X125314342Y-61571904D02*
X125409580Y-61524285D01*
X125409580Y-61524285D02*
X125457200Y-61476666D01*
X125457200Y-61476666D02*
X125504819Y-61381428D01*
X125504819Y-61381428D02*
X125504819Y-61190952D01*
X125504819Y-61190952D02*
X125457200Y-61095714D01*
X125457200Y-61095714D02*
X125409580Y-61048095D01*
X125409580Y-61048095D02*
X125314342Y-61000476D01*
X125314342Y-61000476D02*
X124504819Y-61000476D01*
X124600057Y-60571904D02*
X124552438Y-60524285D01*
X124552438Y-60524285D02*
X124504819Y-60429047D01*
X124504819Y-60429047D02*
X124504819Y-60190952D01*
X124504819Y-60190952D02*
X124552438Y-60095714D01*
X124552438Y-60095714D02*
X124600057Y-60048095D01*
X124600057Y-60048095D02*
X124695295Y-60000476D01*
X124695295Y-60000476D02*
X124790533Y-60000476D01*
X124790533Y-60000476D02*
X124933390Y-60048095D01*
X124933390Y-60048095D02*
X125504819Y-60619523D01*
X125504819Y-60619523D02*
X125504819Y-60000476D01*
X112930833Y-65284819D02*
X112597500Y-64808628D01*
X112359405Y-65284819D02*
X112359405Y-64284819D01*
X112359405Y-64284819D02*
X112740357Y-64284819D01*
X112740357Y-64284819D02*
X112835595Y-64332438D01*
X112835595Y-64332438D02*
X112883214Y-64380057D01*
X112883214Y-64380057D02*
X112930833Y-64475295D01*
X112930833Y-64475295D02*
X112930833Y-64618152D01*
X112930833Y-64618152D02*
X112883214Y-64713390D01*
X112883214Y-64713390D02*
X112835595Y-64761009D01*
X112835595Y-64761009D02*
X112740357Y-64808628D01*
X112740357Y-64808628D02*
X112359405Y-64808628D01*
X113311786Y-64380057D02*
X113359405Y-64332438D01*
X113359405Y-64332438D02*
X113454643Y-64284819D01*
X113454643Y-64284819D02*
X113692738Y-64284819D01*
X113692738Y-64284819D02*
X113787976Y-64332438D01*
X113787976Y-64332438D02*
X113835595Y-64380057D01*
X113835595Y-64380057D02*
X113883214Y-64475295D01*
X113883214Y-64475295D02*
X113883214Y-64570533D01*
X113883214Y-64570533D02*
X113835595Y-64713390D01*
X113835595Y-64713390D02*
X113264167Y-65284819D01*
X113264167Y-65284819D02*
X113883214Y-65284819D01*
X127333333Y-66794819D02*
X127000000Y-66318628D01*
X126761905Y-66794819D02*
X126761905Y-65794819D01*
X126761905Y-65794819D02*
X127142857Y-65794819D01*
X127142857Y-65794819D02*
X127238095Y-65842438D01*
X127238095Y-65842438D02*
X127285714Y-65890057D01*
X127285714Y-65890057D02*
X127333333Y-65985295D01*
X127333333Y-65985295D02*
X127333333Y-66128152D01*
X127333333Y-66128152D02*
X127285714Y-66223390D01*
X127285714Y-66223390D02*
X127238095Y-66271009D01*
X127238095Y-66271009D02*
X127142857Y-66318628D01*
X127142857Y-66318628D02*
X126761905Y-66318628D01*
X128238095Y-65794819D02*
X127761905Y-65794819D01*
X127761905Y-65794819D02*
X127714286Y-66271009D01*
X127714286Y-66271009D02*
X127761905Y-66223390D01*
X127761905Y-66223390D02*
X127857143Y-66175771D01*
X127857143Y-66175771D02*
X128095238Y-66175771D01*
X128095238Y-66175771D02*
X128190476Y-66223390D01*
X128190476Y-66223390D02*
X128238095Y-66271009D01*
X128238095Y-66271009D02*
X128285714Y-66366247D01*
X128285714Y-66366247D02*
X128285714Y-66604342D01*
X128285714Y-66604342D02*
X128238095Y-66699580D01*
X128238095Y-66699580D02*
X128190476Y-66747200D01*
X128190476Y-66747200D02*
X128095238Y-66794819D01*
X128095238Y-66794819D02*
X127857143Y-66794819D01*
X127857143Y-66794819D02*
X127761905Y-66747200D01*
X127761905Y-66747200D02*
X127714286Y-66699580D01*
X131762018Y-69373277D02*
X131714399Y-69468515D01*
X131714399Y-69468515D02*
X131619161Y-69563753D01*
X131619161Y-69563753D02*
X131476303Y-69706610D01*
X131476303Y-69706610D02*
X131428684Y-69801848D01*
X131428684Y-69801848D02*
X131428684Y-69897086D01*
X131666780Y-69849467D02*
X131619161Y-69944705D01*
X131619161Y-69944705D02*
X131523922Y-70039943D01*
X131523922Y-70039943D02*
X131333446Y-70087562D01*
X131333446Y-70087562D02*
X131000113Y-70087562D01*
X131000113Y-70087562D02*
X130809637Y-70039943D01*
X130809637Y-70039943D02*
X130714399Y-69944705D01*
X130714399Y-69944705D02*
X130666780Y-69849467D01*
X130666780Y-69849467D02*
X130666780Y-69658991D01*
X130666780Y-69658991D02*
X130714399Y-69563753D01*
X130714399Y-69563753D02*
X130809637Y-69468515D01*
X130809637Y-69468515D02*
X131000113Y-69420896D01*
X131000113Y-69420896D02*
X131333446Y-69420896D01*
X131333446Y-69420896D02*
X131523922Y-69468515D01*
X131523922Y-69468515D02*
X131619161Y-69563753D01*
X131619161Y-69563753D02*
X131666780Y-69658991D01*
X131666780Y-69658991D02*
X131666780Y-69849467D01*
X131666780Y-68468515D02*
X131666780Y-69039943D01*
X131666780Y-68754229D02*
X130666780Y-68754229D01*
X130666780Y-68754229D02*
X130809637Y-68849467D01*
X130809637Y-68849467D02*
X130904875Y-68944705D01*
X130904875Y-68944705D02*
X130952494Y-69039943D01*
D12*
%TO.C,TH1*%
X107500000Y-81540000D02*
X107500000Y-73440000D01*
X107500000Y-81540000D02*
X110500000Y-81540000D01*
X110500000Y-73440000D02*
X107500000Y-73440000D01*
X110500000Y-73440000D02*
X110500000Y-81540000D01*
%TO.C,R1*%
X109620000Y-68734879D02*
X109620000Y-69070121D01*
X110380000Y-68734879D02*
X110380000Y-69070121D01*
%TO.C,R4*%
X109290000Y-60161252D02*
X109290000Y-57838748D01*
X112710000Y-60161252D02*
X112710000Y-57838748D01*
%TO.C,D1*%
X121260000Y-86000000D02*
X122280000Y-86000000D01*
X123060000Y-84530000D02*
X123060000Y-87470000D01*
X123180000Y-84530000D02*
X123180000Y-87470000D01*
X123300000Y-84530000D02*
X123300000Y-87470000D01*
X128740000Y-86000000D02*
X127720000Y-86000000D01*
X122280000Y-84530000D02*
X127720000Y-84530000D01*
X127720000Y-87470000D01*
X122280000Y-87470000D01*
X122280000Y-84530000D01*
%TO.C,R7*%
X140290000Y-60976248D02*
X140290000Y-63298752D01*
X143710000Y-60976248D02*
X143710000Y-63298752D01*
%TO.C,U1*%
X116855000Y-70360000D02*
X116855000Y-80640000D01*
X116855000Y-80640000D02*
X122155000Y-80640000D01*
X118505000Y-70360000D02*
X116855000Y-70360000D01*
X122155000Y-70360000D02*
X120505000Y-70360000D01*
X122155000Y-80640000D02*
X122155000Y-70360000D01*
X120505000Y-70360000D02*
G75*
G02*
X118505000Y-70360000I-1000000J0D01*
G01*
%TO.C,C1*%
X115840302Y-56185000D02*
X116640302Y-56185000D01*
X116240302Y-55785000D02*
X116240302Y-56585000D01*
X120250000Y-54420000D02*
X120250000Y-62580000D01*
X120290000Y-54420000D02*
X120290000Y-62580000D01*
X120330000Y-54421000D02*
X120330000Y-62579000D01*
X120370000Y-54422000D02*
X120370000Y-62578000D01*
X120410000Y-54423000D02*
X120410000Y-62577000D01*
X120450000Y-54425000D02*
X120450000Y-62575000D01*
X120490000Y-54427000D02*
X120490000Y-62573000D01*
X120530000Y-54430000D02*
X120530000Y-62570000D01*
X120570000Y-54432000D02*
X120570000Y-62568000D01*
X120610000Y-54436000D02*
X120610000Y-62564000D01*
X120650000Y-54439000D02*
X120650000Y-62561000D01*
X120690000Y-54444000D02*
X120690000Y-62556000D01*
X120730000Y-54448000D02*
X120730000Y-62552000D01*
X120770000Y-54453000D02*
X120770000Y-62547000D01*
X120810000Y-54458000D02*
X120810000Y-62542000D01*
X120850000Y-54464000D02*
X120850000Y-62536000D01*
X120890000Y-54470000D02*
X120890000Y-62530000D01*
X120930000Y-54477000D02*
X120930000Y-62523000D01*
X120970000Y-54483000D02*
X120970000Y-57460000D01*
X120970000Y-59540000D02*
X120970000Y-62517000D01*
X121010000Y-54491000D02*
X121010000Y-57460000D01*
X121010000Y-59540000D02*
X121010000Y-62509000D01*
X121050000Y-54498000D02*
X121050000Y-57460000D01*
X121050000Y-59540000D02*
X121050000Y-62502000D01*
X121090000Y-54507000D02*
X121090000Y-57460000D01*
X121090000Y-59540000D02*
X121090000Y-62493000D01*
X121130000Y-54515000D02*
X121130000Y-57460000D01*
X121130000Y-59540000D02*
X121130000Y-62485000D01*
X121170000Y-54524000D02*
X121170000Y-57460000D01*
X121170000Y-59540000D02*
X121170000Y-62476000D01*
X121210000Y-54533000D02*
X121210000Y-57460000D01*
X121210000Y-59540000D02*
X121210000Y-62467000D01*
X121250000Y-54543000D02*
X121250000Y-57460000D01*
X121250000Y-59540000D02*
X121250000Y-62457000D01*
X121290000Y-54553000D02*
X121290000Y-57460000D01*
X121290000Y-59540000D02*
X121290000Y-62447000D01*
X121330000Y-54564000D02*
X121330000Y-57460000D01*
X121330000Y-59540000D02*
X121330000Y-62436000D01*
X121370000Y-54575000D02*
X121370000Y-57460000D01*
X121370000Y-59540000D02*
X121370000Y-62425000D01*
X121410000Y-54587000D02*
X121410000Y-57460000D01*
X121410000Y-59540000D02*
X121410000Y-62413000D01*
X121450000Y-54599000D02*
X121450000Y-57460000D01*
X121450000Y-59540000D02*
X121450000Y-62401000D01*
X121490000Y-54611000D02*
X121490000Y-57460000D01*
X121490000Y-59540000D02*
X121490000Y-62389000D01*
X121530000Y-54624000D02*
X121530000Y-57460000D01*
X121530000Y-59540000D02*
X121530000Y-62376000D01*
X121570000Y-54637000D02*
X121570000Y-57460000D01*
X121570000Y-59540000D02*
X121570000Y-62363000D01*
X121610000Y-54651000D02*
X121610000Y-57460000D01*
X121610000Y-59540000D02*
X121610000Y-62349000D01*
X121650000Y-54665000D02*
X121650000Y-57460000D01*
X121650000Y-59540000D02*
X121650000Y-62335000D01*
X121690000Y-54680000D02*
X121690000Y-57460000D01*
X121690000Y-59540000D02*
X121690000Y-62320000D01*
X121730000Y-54695000D02*
X121730000Y-57460000D01*
X121730000Y-59540000D02*
X121730000Y-62305000D01*
X121770000Y-54711000D02*
X121770000Y-57460000D01*
X121770000Y-59540000D02*
X121770000Y-62289000D01*
X121810000Y-54727000D02*
X121810000Y-57460000D01*
X121810000Y-59540000D02*
X121810000Y-62273000D01*
X121850000Y-54743000D02*
X121850000Y-57460000D01*
X121850000Y-59540000D02*
X121850000Y-62257000D01*
X121890000Y-54760000D02*
X121890000Y-57460000D01*
X121890000Y-59540000D02*
X121890000Y-62240000D01*
X121930000Y-54778000D02*
X121930000Y-57460000D01*
X121930000Y-59540000D02*
X121930000Y-62222000D01*
X121970000Y-54796000D02*
X121970000Y-57460000D01*
X121970000Y-59540000D02*
X121970000Y-62204000D01*
X122010000Y-54815000D02*
X122010000Y-57460000D01*
X122010000Y-59540000D02*
X122010000Y-62185000D01*
X122050000Y-54834000D02*
X122050000Y-57460000D01*
X122050000Y-59540000D02*
X122050000Y-62166000D01*
X122090000Y-54854000D02*
X122090000Y-57460000D01*
X122090000Y-59540000D02*
X122090000Y-62146000D01*
X122130000Y-54874000D02*
X122130000Y-57460000D01*
X122130000Y-59540000D02*
X122130000Y-62126000D01*
X122170000Y-54895000D02*
X122170000Y-57460000D01*
X122170000Y-59540000D02*
X122170000Y-62105000D01*
X122210000Y-54916000D02*
X122210000Y-57460000D01*
X122210000Y-59540000D02*
X122210000Y-62084000D01*
X122250000Y-54938000D02*
X122250000Y-57460000D01*
X122250000Y-59540000D02*
X122250000Y-62062000D01*
X122290000Y-54961000D02*
X122290000Y-57460000D01*
X122290000Y-59540000D02*
X122290000Y-62039000D01*
X122330000Y-54984000D02*
X122330000Y-57460000D01*
X122330000Y-59540000D02*
X122330000Y-62016000D01*
X122370000Y-55007000D02*
X122370000Y-57460000D01*
X122370000Y-59540000D02*
X122370000Y-61993000D01*
X122410000Y-55032000D02*
X122410000Y-57460000D01*
X122410000Y-59540000D02*
X122410000Y-61968000D01*
X122450000Y-55057000D02*
X122450000Y-57460000D01*
X122450000Y-59540000D02*
X122450000Y-61943000D01*
X122490000Y-55082000D02*
X122490000Y-57460000D01*
X122490000Y-59540000D02*
X122490000Y-61918000D01*
X122530000Y-55108000D02*
X122530000Y-57460000D01*
X122530000Y-59540000D02*
X122530000Y-61892000D01*
X122570000Y-55135000D02*
X122570000Y-57460000D01*
X122570000Y-59540000D02*
X122570000Y-61865000D01*
X122610000Y-55163000D02*
X122610000Y-57460000D01*
X122610000Y-59540000D02*
X122610000Y-61837000D01*
X122650000Y-55191000D02*
X122650000Y-57460000D01*
X122650000Y-59540000D02*
X122650000Y-61809000D01*
X122690000Y-55220000D02*
X122690000Y-57460000D01*
X122690000Y-59540000D02*
X122690000Y-61780000D01*
X122730000Y-55250000D02*
X122730000Y-57460000D01*
X122730000Y-59540000D02*
X122730000Y-61750000D01*
X122770000Y-55281000D02*
X122770000Y-57460000D01*
X122770000Y-59540000D02*
X122770000Y-61719000D01*
X122810000Y-55312000D02*
X122810000Y-57460000D01*
X122810000Y-59540000D02*
X122810000Y-61688000D01*
X122850000Y-55344000D02*
X122850000Y-57460000D01*
X122850000Y-59540000D02*
X122850000Y-61656000D01*
X122890000Y-55377000D02*
X122890000Y-57460000D01*
X122890000Y-59540000D02*
X122890000Y-61623000D01*
X122930000Y-55411000D02*
X122930000Y-57460000D01*
X122930000Y-59540000D02*
X122930000Y-61589000D01*
X122970000Y-55445000D02*
X122970000Y-57460000D01*
X122970000Y-59540000D02*
X122970000Y-61555000D01*
X123010000Y-55481000D02*
X123010000Y-57460000D01*
X123010000Y-59540000D02*
X123010000Y-61519000D01*
X123050000Y-55518000D02*
X123050000Y-61482000D01*
X123090000Y-55555000D02*
X123090000Y-61445000D01*
X123130000Y-55594000D02*
X123130000Y-61406000D01*
X123170000Y-55633000D02*
X123170000Y-61367000D01*
X123210000Y-55674000D02*
X123210000Y-61326000D01*
X123250000Y-55716000D02*
X123250000Y-61284000D01*
X123290000Y-55759000D02*
X123290000Y-61241000D01*
X123330000Y-55804000D02*
X123330000Y-61196000D01*
X123370000Y-55849000D02*
X123370000Y-61151000D01*
X123410000Y-55896000D02*
X123410000Y-61104000D01*
X123450000Y-55945000D02*
X123450000Y-61055000D01*
X123490000Y-55995000D02*
X123490000Y-61005000D01*
X123530000Y-56047000D02*
X123530000Y-60953000D01*
X123570000Y-56100000D02*
X123570000Y-60900000D01*
X123610000Y-56156000D02*
X123610000Y-60844000D01*
X123650000Y-56213000D02*
X123650000Y-60787000D01*
X123690000Y-56273000D02*
X123690000Y-60727000D01*
X123730000Y-56335000D02*
X123730000Y-60665000D01*
X123770000Y-56399000D02*
X123770000Y-60601000D01*
X123810000Y-56466000D02*
X123810000Y-60534000D01*
X123850000Y-56536000D02*
X123850000Y-60464000D01*
X123890000Y-56610000D02*
X123890000Y-60390000D01*
X123930000Y-56687000D02*
X123930000Y-60313000D01*
X123970000Y-56769000D02*
X123970000Y-60231000D01*
X124010000Y-56856000D02*
X124010000Y-60144000D01*
X124050000Y-56948000D02*
X124050000Y-60052000D01*
X124090000Y-57047000D02*
X124090000Y-59953000D01*
X124130000Y-57154000D02*
X124130000Y-59846000D01*
X124170000Y-57272000D02*
X124170000Y-59728000D01*
X124210000Y-57403000D02*
X124210000Y-59597000D01*
X124250000Y-57553000D02*
X124250000Y-59447000D01*
X124290000Y-57732000D02*
X124290000Y-59268000D01*
X124330000Y-57967000D02*
X124330000Y-59033000D01*
X124370000Y-58500000D02*
G75*
G02*
X116130000Y-58500000I-4120000J0D01*
G01*
X116130000Y-58500000D02*
G75*
G02*
X124370000Y-58500000I4120000J0D01*
G01*
%TO.C,BZ1*%
X146770785Y-78000001D02*
G75*
G02*
X146770785Y-81000000I-6400000J-1499999D01*
G01*
X146600785Y-79500000D02*
G75*
G02*
X134140785Y-79500000I-6230000J0D01*
G01*
X134140785Y-79500000D02*
G75*
G02*
X146600785Y-79500000I6230000J0D01*
G01*
%TO.C,RV1*%
X125690000Y-79220000D02*
X125690000Y-75240000D01*
X125690000Y-80950000D02*
X125690000Y-80260000D01*
X125790000Y-80950000D02*
X125690000Y-80950000D01*
X125790000Y-81150000D02*
X125790000Y-80950000D01*
X127000000Y-73930000D02*
X128490000Y-73930000D01*
X127210000Y-80950000D02*
X127210000Y-81150000D01*
X127210000Y-81150000D02*
X125790000Y-81150000D01*
X129510000Y-73930000D02*
X131000000Y-73930000D01*
X130790000Y-80950000D02*
X127210000Y-80950000D01*
X130790000Y-80950000D02*
X130790000Y-81150000D01*
X132210000Y-80950000D02*
X132310000Y-80950000D01*
X132210000Y-81150000D02*
X130790000Y-81150000D01*
X132210000Y-81150000D02*
X132210000Y-80950000D01*
X132310000Y-75240000D02*
X132310000Y-78780000D01*
X132310000Y-80950000D02*
X132310000Y-80700000D01*
X125690000Y-75240000D02*
G75*
G02*
X127000000Y-73930000I1310000J0D01*
G01*
X131000000Y-73930000D02*
G75*
G02*
X132310000Y-75240000I0J-1310000D01*
G01*
%TO.C,U2*%
X126050000Y-58160000D02*
X126050000Y-59810000D01*
X126050000Y-61810000D02*
X126050000Y-63460000D01*
X126050000Y-63460000D02*
X136330000Y-63460000D01*
X136330000Y-58160000D02*
X126050000Y-58160000D01*
X136330000Y-63460000D02*
X136330000Y-58160000D01*
X126050000Y-59810000D02*
G75*
G02*
X126050000Y-61810000I0J-1000000D01*
G01*
%TO.C,R6*%
X127332379Y-69120000D02*
X127667621Y-69120000D01*
X127332379Y-69880000D02*
X127667621Y-69880000D01*
%TO.C,R2*%
X112929879Y-65620000D02*
X113265121Y-65620000D01*
X112929879Y-66380000D02*
X113265121Y-66380000D01*
%TO.C,R3*%
X120798752Y-64790000D02*
X118476248Y-64790000D01*
X120798752Y-68210000D02*
X118476248Y-68210000D01*
%TO.C,R5*%
X127332379Y-67130000D02*
X127667621Y-67130000D01*
X127332379Y-67890000D02*
X127667621Y-67890000D01*
%TO.C,Q1*%
X131821853Y-71702340D02*
X132797660Y-72678147D01*
X132662343Y-70861850D02*
X131821853Y-71702340D01*
X132797660Y-72678147D02*
X133638150Y-71837657D01*
X132662343Y-70861850D02*
G75*
G02*
X133638150Y-71837657I2559618J1583811D01*
G01*
%TD*%
M02*
