%TF.GenerationSoftware,KiCad,Pcbnew,9.0.6*%
%TF.CreationDate,2025-12-28T16:01:46+05:30*%
%TF.ProjectId,Temp,54656d70-2e6b-4696-9361-645f70636258,rev?*%
%TF.SameCoordinates,Original*%
%TF.FileFunction,Soldermask,Top*%
%TF.FilePolarity,Negative*%
%FSLAX46Y46*%
G04 Gerber Fmt 4.6, Leading zero omitted, Abs format (unit mm)*
G04 Created by KiCad (PCBNEW 9.0.6) date 2025-12-28 16:01:46*
%MOMM*%
%LPD*%
G01*
G04 APERTURE LIST*
G04 Aperture macros list*
%AMRoundRect*
0 Rectangle with rounded corners*
0 $1 Rounding radius*
0 $2 $3 $4 $5 $6 $7 $8 $9 X,Y pos of 4 corners*
0 Add a 4 corners polygon primitive as box body*
4,1,4,$2,$3,$4,$5,$6,$7,$8,$9,$2,$3,0*
0 Add four circle primitives for the rounded corners*
1,1,$1+$1,$2,$3*
1,1,$1+$1,$4,$5*
1,1,$1+$1,$6,$7*
1,1,$1+$1,$8,$9*
0 Add four rect primitives between the rounded corners*
20,1,$1+$1,$2,$3,$4,$5,0*
20,1,$1+$1,$4,$5,$6,$7,0*
20,1,$1+$1,$6,$7,$8,$9,0*
20,1,$1+$1,$8,$9,$2,$3,0*%
G04 Aperture macros list end*
%ADD10RoundRect,0.650000X0.650000X-0.650000X0.650000X0.650000X-0.650000X0.650000X-0.650000X-0.650000X0*%
%ADD11C,2.600000*%
%ADD12RoundRect,0.160000X-0.160000X0.197500X-0.160000X-0.197500X0.160000X-0.197500X0.160000X0.197500X0*%
%ADD13RoundRect,0.250000X1.450000X-0.537500X1.450000X0.537500X-1.450000X0.537500X-1.450000X-0.537500X0*%
%ADD14RoundRect,0.249999X-0.850001X-0.850001X0.850001X-0.850001X0.850001X0.850001X-0.850001X0.850001X0*%
%ADD15C,2.200000*%
%ADD16RoundRect,0.250000X-1.450000X0.537500X-1.450000X-0.537500X1.450000X-0.537500X1.450000X0.537500X0*%
%ADD17RoundRect,0.250000X-0.550000X-0.550000X0.550000X-0.550000X0.550000X0.550000X-0.550000X0.550000X0*%
%ADD18C,1.600000*%
%ADD19R,2.000000X2.000000*%
%ADD20C,2.000000*%
%ADD21R,1.560000X1.560000*%
%ADD22C,1.560000*%
%ADD23RoundRect,0.250000X0.550000X-0.550000X0.550000X0.550000X-0.550000X0.550000X-0.550000X-0.550000X0*%
%ADD24RoundRect,0.160000X-0.197500X-0.160000X0.197500X-0.160000X0.197500X0.160000X-0.197500X0.160000X0*%
%ADD25RoundRect,0.250000X0.537500X1.450000X-0.537500X1.450000X-0.537500X-1.450000X0.537500X-1.450000X0*%
%ADD26O,1.200000X1.600000*%
%ADD27C,1.200000*%
G04 APERTURE END LIST*
D10*
%TO.C,TH1*%
X109000000Y-80040000D03*
D11*
X109000000Y-74960000D03*
%TD*%
D12*
%TO.C,R1*%
X110000000Y-68305000D03*
X110000000Y-69500000D03*
%TD*%
D13*
%TO.C,R4*%
X111000000Y-61137500D03*
X111000000Y-56862500D03*
%TD*%
D14*
%TO.C,D1*%
X119920000Y-86000000D03*
D15*
X130080000Y-86000000D03*
%TD*%
D16*
%TO.C,R7*%
X142000000Y-60000000D03*
X142000000Y-64275000D03*
%TD*%
D17*
%TO.C,U1*%
X115695000Y-71690000D03*
D18*
X115695000Y-74230000D03*
X115695000Y-76770000D03*
X115695000Y-79310000D03*
X123315000Y-79310000D03*
X123315000Y-76770000D03*
X123315000Y-74230000D03*
X123315000Y-71690000D03*
%TD*%
D17*
%TO.C,C1*%
X118500000Y-58500000D03*
D18*
X122000000Y-58500000D03*
%TD*%
D19*
%TO.C,BZ1*%
X142870785Y-79500000D03*
D20*
X137870785Y-79500000D03*
%TD*%
D21*
%TO.C,RV1*%
X131500000Y-79740000D03*
D22*
X129000000Y-74740000D03*
X126500000Y-79740000D03*
%TD*%
D23*
%TO.C,U2*%
X127380000Y-64620000D03*
D18*
X129920000Y-64620000D03*
X132460000Y-64620000D03*
X135000000Y-64620000D03*
X135000000Y-57000000D03*
X132460000Y-57000000D03*
X129920000Y-57000000D03*
X127380000Y-57000000D03*
%TD*%
D24*
%TO.C,R6*%
X126902500Y-69500000D03*
X128097500Y-69500000D03*
%TD*%
%TO.C,R2*%
X112500000Y-66000000D03*
X113695000Y-66000000D03*
%TD*%
D25*
%TO.C,R3*%
X121775000Y-66500000D03*
X117500000Y-66500000D03*
%TD*%
D24*
%TO.C,R5*%
X126902500Y-67510000D03*
X128097500Y-67510000D03*
%TD*%
D26*
%TO.C,Q1*%
X135221961Y-70548039D03*
D27*
X136491961Y-69278039D03*
X135221961Y-68008039D03*
%TD*%
M02*
