M48
; DRILL file {KiCad 9.0.6} date 2025-12-28T16:01:57+0530
; FORMAT={-:-/ absolute / metric / decimal}
; #@! TF.CreationDate,2025-12-28T16:01:57+05:30
; #@! TF.GenerationSoftware,Kicad,Pcbnew,9.0.6
; #@! TF.FileFunction,Plated,1,2,PTH
FMAT,2
METRIC
; #@! TA.AperFunction,Plated,PTH,ViaDrill
T1C0.300
; #@! TA.AperFunction,Plated,PTH,ComponentDrill
T2C0.700
; #@! TA.AperFunction,Plated,PTH,ComponentDrill
T3C0.800
; #@! TA.AperFunction,Plated,PTH,ComponentDrill
T4C1.000
; #@! TA.AperFunction,Plated,PTH,ComponentDrill
T5C1.100
; #@! TA.AperFunction,Plated,PTH,ComponentDrill
T6C1.300
%
G90
G05
T1
X109.979Y-67.207
T2
X135.222Y-68.008
X135.222Y-70.548
X136.492Y-69.278
T3
X115.695Y-71.69
X115.695Y-74.23
X115.695Y-76.77
X115.695Y-79.31
X118.5Y-58.5
X122.0Y-58.5
X123.315Y-71.69
X123.315Y-74.23
X123.315Y-76.77
X123.315Y-79.31
X127.38Y-57.0
X127.38Y-64.62
X129.92Y-57.0
X129.92Y-64.62
X132.46Y-57.0
X132.46Y-64.62
X135.0Y-57.0
X135.0Y-64.62
T4
X126.5Y-79.74
X129.0Y-74.74
X131.5Y-79.74
X137.871Y-79.5
X142.871Y-79.5
T5
X119.92Y-86.0
X130.08Y-86.0
T6
X109.0Y-74.96
X109.0Y-80.04
M30
