%TF.GenerationSoftware,KiCad,Pcbnew,9.0.6*%
%TF.CreationDate,2025-12-28T16:01:46+05:30*%
%TF.ProjectId,Temp,54656d70-2e6b-4696-9361-645f70636258,rev?*%
%TF.SameCoordinates,Original*%
%TF.FileFunction,Copper,L2,Bot*%
%TF.FilePolarity,Positive*%
%FSLAX46Y46*%
G04 Gerber Fmt 4.6, Leading zero omitted, Abs format (unit mm)*
G04 Created by KiCad (PCBNEW 9.0.6) date 2025-12-28 16:01:46*
%MOMM*%
%LPD*%
G01*
G04 APERTURE LIST*
G04 Aperture macros list*
%AMRoundRect*
0 Rectangle with rounded corners*
0 $1 Rounding radius*
0 $2 $3 $4 $5 $6 $7 $8 $9 X,Y pos of 4 corners*
0 Add a 4 corners polygon primitive as box body*
4,1,4,$2,$3,$4,$5,$6,$7,$8,$9,$2,$3,0*
0 Add four circle primitives for the rounded corners*
1,1,$1+$1,$2,$3*
1,1,$1+$1,$4,$5*
1,1,$1+$1,$6,$7*
1,1,$1+$1,$8,$9*
0 Add four rect primitives between the rounded corners*
20,1,$1+$1,$2,$3,$4,$5,0*
20,1,$1+$1,$4,$5,$6,$7,0*
20,1,$1+$1,$6,$7,$8,$9,0*
20,1,$1+$1,$8,$9,$2,$3,0*%
G04 Aperture macros list end*
%TA.AperFunction,ComponentPad*%
%ADD10RoundRect,0.650000X0.650000X-0.650000X0.650000X0.650000X-0.650000X0.650000X-0.650000X-0.650000X0*%
%TD*%
%TA.AperFunction,ComponentPad*%
%ADD11C,2.600000*%
%TD*%
%TA.AperFunction,ComponentPad*%
%ADD12RoundRect,0.249999X-0.850001X-0.850001X0.850001X-0.850001X0.850001X0.850001X-0.850001X0.850001X0*%
%TD*%
%TA.AperFunction,ComponentPad*%
%ADD13C,2.200000*%
%TD*%
%TA.AperFunction,ComponentPad*%
%ADD14RoundRect,0.250000X-0.550000X-0.550000X0.550000X-0.550000X0.550000X0.550000X-0.550000X0.550000X0*%
%TD*%
%TA.AperFunction,ComponentPad*%
%ADD15C,1.600000*%
%TD*%
%TA.AperFunction,ComponentPad*%
%ADD16R,2.000000X2.000000*%
%TD*%
%TA.AperFunction,ComponentPad*%
%ADD17C,2.000000*%
%TD*%
%TA.AperFunction,ComponentPad*%
%ADD18R,1.560000X1.560000*%
%TD*%
%TA.AperFunction,ComponentPad*%
%ADD19C,1.560000*%
%TD*%
%TA.AperFunction,ComponentPad*%
%ADD20RoundRect,0.250000X0.550000X-0.550000X0.550000X0.550000X-0.550000X0.550000X-0.550000X-0.550000X0*%
%TD*%
%TA.AperFunction,ComponentPad*%
%ADD21O,1.200000X1.600000*%
%TD*%
%TA.AperFunction,ComponentPad*%
%ADD22C,1.200000*%
%TD*%
%TA.AperFunction,ViaPad*%
%ADD23C,0.600000*%
%TD*%
%TA.AperFunction,Conductor*%
%ADD24C,0.200000*%
%TD*%
G04 APERTURE END LIST*
D10*
%TO.P,TH1,1*%
%TO.N,Vcc*%
X109000000Y-80040000D03*
D11*
%TO.P,TH1,2*%
%TO.N,Temp_V*%
X109000000Y-74960000D03*
%TD*%
D12*
%TO.P,D1,1,K*%
%TO.N,Net-(D1-K)*%
X119920000Y-86000000D03*
D13*
%TO.P,D1,2,A*%
%TO.N,Net-(BZ1--)*%
X130080000Y-86000000D03*
%TD*%
D14*
%TO.P,U1,1,NULL*%
%TO.N,unconnected-(U1-NULL-Pad1)*%
X115695000Y-71690000D03*
D15*
%TO.P,U1,2,-*%
%TO.N,Net-(U1--)*%
X115695000Y-74230000D03*
%TO.P,U1,3,+*%
%TO.N,Temp_V*%
X115695000Y-76770000D03*
%TO.P,U1,4,V-*%
%TO.N,Gnd*%
X115695000Y-79310000D03*
%TO.P,U1,5,NULL*%
%TO.N,unconnected-(U1-NULL-Pad5)*%
X123315000Y-79310000D03*
%TO.P,U1,6*%
%TO.N,Vout*%
X123315000Y-76770000D03*
%TO.P,U1,7,V+*%
%TO.N,Vcc*%
X123315000Y-74230000D03*
%TO.P,U1,8,NC*%
%TO.N,unconnected-(U1-NC-Pad8)*%
X123315000Y-71690000D03*
%TD*%
D14*
%TO.P,C1,1*%
%TO.N,Net-(U1--)*%
X118500000Y-58500000D03*
D15*
%TO.P,C1,2*%
%TO.N,Vout*%
X122000000Y-58500000D03*
%TD*%
D16*
%TO.P,BZ1,1,+*%
%TO.N,Vcc*%
X142870785Y-79500000D03*
D17*
%TO.P,BZ1,2,-*%
%TO.N,Net-(BZ1--)*%
X137870785Y-79500000D03*
%TD*%
D18*
%TO.P,RV1,1,1*%
%TO.N,Vcc*%
X131500000Y-79740000D03*
D19*
%TO.P,RV1,2,2*%
%TO.N,Net-(U2A--)*%
X129000000Y-74740000D03*
%TO.P,RV1,3,3*%
%TO.N,Gnd*%
X126500000Y-79740000D03*
%TD*%
D20*
%TO.P,U2,1*%
%TO.N,Comp_out*%
X127380000Y-64620000D03*
D15*
%TO.P,U2,2,-*%
%TO.N,Net-(U2A--)*%
X129920000Y-64620000D03*
%TO.P,U2,3,+*%
%TO.N,Vout*%
X132460000Y-64620000D03*
%TO.P,U2,4,V-*%
%TO.N,Gnd*%
X135000000Y-64620000D03*
%TO.P,U2,5*%
%TO.N,N/C*%
X135000000Y-57000000D03*
%TO.P,U2,6*%
X132460000Y-57000000D03*
%TO.P,U2,7*%
X129920000Y-57000000D03*
%TO.P,U2,8,V+*%
%TO.N,Vcc*%
X127380000Y-57000000D03*
%TD*%
D21*
%TO.P,Q1,1,C*%
%TO.N,Net-(D1-K)*%
X135221961Y-70548039D03*
D22*
%TO.P,Q1,2,B*%
%TO.N,Net-(Q1-B)*%
X136491961Y-69278039D03*
%TO.P,Q1,3,E*%
%TO.N,Net-(Q1-E)*%
X135221961Y-68008039D03*
%TD*%
D23*
%TO.N,Temp_V*%
X109979000Y-67206527D03*
%TD*%
D24*
%TO.N,Vcc*%
X124416000Y-59964000D02*
X124416000Y-73129000D01*
X124416000Y-73129000D02*
X123315000Y-74230000D01*
X127380000Y-57000000D02*
X124416000Y-59964000D01*
%TO.N,Temp_V*%
X115695000Y-76770000D02*
X110810000Y-76770000D01*
X109000000Y-68185527D02*
X109000000Y-74960000D01*
X110810000Y-76770000D02*
X109000000Y-74960000D01*
X109979000Y-67206527D02*
X109000000Y-68185527D01*
%TD*%
%TA.AperFunction,Conductor*%
%TO.N,Gnd*%
G36*
X147942539Y-52020185D02*
G01*
X147988294Y-52072989D01*
X147999500Y-52124500D01*
X147999500Y-88375500D01*
X147979815Y-88442539D01*
X147927011Y-88488294D01*
X147875500Y-88499500D01*
X105124500Y-88499500D01*
X105057461Y-88479815D01*
X105011706Y-88427011D01*
X105000500Y-88375500D01*
X105000500Y-85099982D01*
X118319500Y-85099982D01*
X118319500Y-86900017D01*
X118330000Y-87002796D01*
X118385185Y-87169332D01*
X118385186Y-87169335D01*
X118477288Y-87318656D01*
X118601344Y-87442712D01*
X118750665Y-87534814D01*
X118917202Y-87589999D01*
X119019990Y-87600500D01*
X119019995Y-87600500D01*
X120820005Y-87600500D01*
X120820010Y-87600500D01*
X120922798Y-87589999D01*
X121089335Y-87534814D01*
X121238656Y-87442712D01*
X121362712Y-87318656D01*
X121454814Y-87169335D01*
X121509999Y-87002798D01*
X121520500Y-86900010D01*
X121520500Y-85874038D01*
X128479500Y-85874038D01*
X128479500Y-86125961D01*
X128518910Y-86374785D01*
X128596760Y-86614383D01*
X128711132Y-86838848D01*
X128859201Y-87042649D01*
X128859205Y-87042654D01*
X129037345Y-87220794D01*
X129037350Y-87220798D01*
X129215117Y-87349952D01*
X129241155Y-87368870D01*
X129384184Y-87441747D01*
X129465616Y-87483239D01*
X129465618Y-87483239D01*
X129465621Y-87483241D01*
X129705215Y-87561090D01*
X129954038Y-87600500D01*
X129954039Y-87600500D01*
X130205961Y-87600500D01*
X130205962Y-87600500D01*
X130454785Y-87561090D01*
X130694379Y-87483241D01*
X130918845Y-87368870D01*
X131122656Y-87220793D01*
X131300793Y-87042656D01*
X131448870Y-86838845D01*
X131563241Y-86614379D01*
X131641090Y-86374785D01*
X131680500Y-86125962D01*
X131680500Y-85874038D01*
X131641090Y-85625215D01*
X131563241Y-85385621D01*
X131563239Y-85385618D01*
X131563239Y-85385616D01*
X131521747Y-85304184D01*
X131448870Y-85161155D01*
X131404425Y-85099982D01*
X131300798Y-84957350D01*
X131300794Y-84957345D01*
X131122654Y-84779205D01*
X131122649Y-84779201D01*
X130918848Y-84631132D01*
X130918847Y-84631131D01*
X130918845Y-84631130D01*
X130848747Y-84595413D01*
X130694383Y-84516760D01*
X130454785Y-84438910D01*
X130205962Y-84399500D01*
X129954038Y-84399500D01*
X129887738Y-84410001D01*
X129705214Y-84438910D01*
X129465616Y-84516760D01*
X129241151Y-84631132D01*
X129037350Y-84779201D01*
X129037345Y-84779205D01*
X128859205Y-84957345D01*
X128859201Y-84957350D01*
X128711132Y-85161151D01*
X128596760Y-85385616D01*
X128518910Y-85625214D01*
X128479500Y-85874038D01*
X121520500Y-85874038D01*
X121520500Y-85099990D01*
X121509999Y-84997202D01*
X121454814Y-84830665D01*
X121362712Y-84681344D01*
X121238656Y-84557288D01*
X121089335Y-84465186D01*
X120922798Y-84410001D01*
X120922796Y-84410000D01*
X120820017Y-84399500D01*
X120820010Y-84399500D01*
X119019990Y-84399500D01*
X119019982Y-84399500D01*
X118917203Y-84410000D01*
X118917202Y-84410001D01*
X118834669Y-84437349D01*
X118750667Y-84465185D01*
X118750662Y-84465187D01*
X118601342Y-84557289D01*
X118477289Y-84681342D01*
X118385187Y-84830662D01*
X118385186Y-84830665D01*
X118330001Y-84997202D01*
X118330001Y-84997203D01*
X118330000Y-84997203D01*
X118319500Y-85099982D01*
X105000500Y-85099982D01*
X105000500Y-79318984D01*
X107199500Y-79318984D01*
X107199500Y-80761015D01*
X107205650Y-80849624D01*
X107205652Y-80849640D01*
X107254465Y-81057176D01*
X107254467Y-81057182D01*
X107254468Y-81057185D01*
X107340591Y-81252237D01*
X107340592Y-81252238D01*
X107461088Y-81428141D01*
X107461093Y-81428147D01*
X107611852Y-81578906D01*
X107611858Y-81578911D01*
X107787763Y-81699409D01*
X107982815Y-81785532D01*
X107982821Y-81785533D01*
X107982823Y-81785534D01*
X108190359Y-81834347D01*
X108190364Y-81834347D01*
X108190370Y-81834349D01*
X108239602Y-81837766D01*
X108278984Y-81840500D01*
X108278988Y-81840500D01*
X109721016Y-81840500D01*
X109756459Y-81838039D01*
X109809630Y-81834349D01*
X109809636Y-81834347D01*
X109809640Y-81834347D01*
X110017176Y-81785534D01*
X110017174Y-81785534D01*
X110017185Y-81785532D01*
X110212237Y-81699409D01*
X110388142Y-81578911D01*
X110538911Y-81428142D01*
X110659409Y-81252237D01*
X110745532Y-81057185D01*
X110776334Y-80926223D01*
X110794347Y-80849640D01*
X110794347Y-80849636D01*
X110794349Y-80849630D01*
X110800408Y-80762335D01*
X110800500Y-80761015D01*
X110800500Y-79318984D01*
X110794349Y-79230375D01*
X110794348Y-79230364D01*
X110745534Y-79022823D01*
X110745532Y-79022817D01*
X110745532Y-79022815D01*
X110659409Y-78827763D01*
X110538911Y-78651858D01*
X110538906Y-78651852D01*
X110388147Y-78501093D01*
X110388141Y-78501088D01*
X110300189Y-78440840D01*
X110212237Y-78380591D01*
X110017185Y-78294468D01*
X110017183Y-78294467D01*
X110017182Y-78294467D01*
X110017176Y-78294465D01*
X109809640Y-78245652D01*
X109809624Y-78245650D01*
X109721016Y-78239500D01*
X109721012Y-78239500D01*
X108278988Y-78239500D01*
X108278984Y-78239500D01*
X108190375Y-78245650D01*
X108190359Y-78245652D01*
X107982823Y-78294465D01*
X107982817Y-78294467D01*
X107787761Y-78380592D01*
X107611858Y-78501088D01*
X107611852Y-78501093D01*
X107461093Y-78651852D01*
X107461088Y-78651858D01*
X107340592Y-78827761D01*
X107340591Y-78827763D01*
X107298097Y-78924003D01*
X107254467Y-79022817D01*
X107254465Y-79022823D01*
X107205652Y-79230359D01*
X107205650Y-79230375D01*
X107199500Y-79318984D01*
X105000500Y-79318984D01*
X105000500Y-74841995D01*
X107199500Y-74841995D01*
X107199500Y-75078004D01*
X107199501Y-75078020D01*
X107230306Y-75312010D01*
X107291394Y-75539993D01*
X107381714Y-75758045D01*
X107381719Y-75758056D01*
X107452677Y-75880957D01*
X107499727Y-75962450D01*
X107499729Y-75962453D01*
X107499730Y-75962454D01*
X107643406Y-76149697D01*
X107643412Y-76149704D01*
X107810295Y-76316587D01*
X107810301Y-76316592D01*
X107997550Y-76460273D01*
X108128918Y-76536118D01*
X108201943Y-76578280D01*
X108201948Y-76578282D01*
X108201951Y-76578284D01*
X108420007Y-76668606D01*
X108647986Y-76729693D01*
X108881989Y-76760500D01*
X108881996Y-76760500D01*
X109118004Y-76760500D01*
X109118011Y-76760500D01*
X109352014Y-76729693D01*
X109579993Y-76668606D01*
X109700998Y-76618483D01*
X109770462Y-76611015D01*
X109832942Y-76642289D01*
X109836128Y-76645364D01*
X110441284Y-77250520D01*
X110441286Y-77250521D01*
X110441290Y-77250524D01*
X110578209Y-77329573D01*
X110578216Y-77329577D01*
X110730943Y-77370501D01*
X110730945Y-77370501D01*
X110896654Y-77370501D01*
X110896670Y-77370500D01*
X114465398Y-77370500D01*
X114532437Y-77390185D01*
X114575883Y-77438205D01*
X114582715Y-77451614D01*
X114703028Y-77617213D01*
X114847786Y-77761971D01*
X115013385Y-77882284D01*
X115013387Y-77882285D01*
X115013390Y-77882287D01*
X115106080Y-77929515D01*
X115106630Y-77929795D01*
X115157426Y-77977770D01*
X115174221Y-78045591D01*
X115151684Y-78111725D01*
X115106630Y-78150765D01*
X115013644Y-78198143D01*
X114969077Y-78230523D01*
X114969077Y-78230524D01*
X115648554Y-78910000D01*
X115642339Y-78910000D01*
X115540606Y-78937259D01*
X115449394Y-78989920D01*
X115374920Y-79064394D01*
X115322259Y-79155606D01*
X115295000Y-79257339D01*
X115295000Y-79263553D01*
X114615524Y-78584077D01*
X114615523Y-78584077D01*
X114583143Y-78628644D01*
X114490244Y-78810968D01*
X114427009Y-79005582D01*
X114395000Y-79207682D01*
X114395000Y-79412317D01*
X114427009Y-79614417D01*
X114490244Y-79809031D01*
X114583141Y-79991350D01*
X114583147Y-79991359D01*
X114615523Y-80035921D01*
X114615524Y-80035922D01*
X115295000Y-79356446D01*
X115295000Y-79362661D01*
X115322259Y-79464394D01*
X115374920Y-79555606D01*
X115449394Y-79630080D01*
X115540606Y-79682741D01*
X115642339Y-79710000D01*
X115648553Y-79710000D01*
X114969076Y-80389474D01*
X115013650Y-80421859D01*
X115195968Y-80514755D01*
X115390582Y-80577990D01*
X115592683Y-80610000D01*
X115797317Y-80610000D01*
X115999417Y-80577990D01*
X116194031Y-80514755D01*
X116376349Y-80421859D01*
X116420921Y-80389474D01*
X115741447Y-79710000D01*
X115747661Y-79710000D01*
X115849394Y-79682741D01*
X115940606Y-79630080D01*
X116015080Y-79555606D01*
X116067741Y-79464394D01*
X116095000Y-79362661D01*
X116095000Y-79356447D01*
X116774474Y-80035921D01*
X116806859Y-79991349D01*
X116899755Y-79809031D01*
X116962990Y-79614417D01*
X116995000Y-79412317D01*
X116995000Y-79207682D01*
X116962990Y-79005582D01*
X116899755Y-78810968D01*
X116806859Y-78628650D01*
X116774474Y-78584077D01*
X116774474Y-78584076D01*
X116095000Y-79263551D01*
X116095000Y-79257339D01*
X116067741Y-79155606D01*
X116015080Y-79064394D01*
X115940606Y-78989920D01*
X115849394Y-78937259D01*
X115747661Y-78910000D01*
X115741446Y-78910000D01*
X116420922Y-78230524D01*
X116420921Y-78230523D01*
X116376359Y-78198147D01*
X116376350Y-78198141D01*
X116283369Y-78150765D01*
X116232573Y-78102790D01*
X116215778Y-78034969D01*
X116238315Y-77968835D01*
X116283370Y-77929795D01*
X116283920Y-77929515D01*
X116376610Y-77882287D01*
X116426144Y-77846298D01*
X116542213Y-77761971D01*
X116542215Y-77761968D01*
X116542219Y-77761966D01*
X116686966Y-77617219D01*
X116686968Y-77617215D01*
X116686971Y-77617213D01*
X116739732Y-77544590D01*
X116807287Y-77451610D01*
X116900220Y-77269219D01*
X116963477Y-77074534D01*
X116995500Y-76872352D01*
X116995500Y-76667648D01*
X116963477Y-76465466D01*
X116961788Y-76460269D01*
X116900218Y-76270776D01*
X116866503Y-76204607D01*
X116807287Y-76088390D01*
X116799556Y-76077749D01*
X116686971Y-75922786D01*
X116542213Y-75778028D01*
X116376614Y-75657715D01*
X116370006Y-75654348D01*
X116283917Y-75610483D01*
X116233123Y-75562511D01*
X116216328Y-75494690D01*
X116238865Y-75428555D01*
X116283917Y-75389516D01*
X116376610Y-75342287D01*
X116529039Y-75231542D01*
X116542213Y-75221971D01*
X116542215Y-75221968D01*
X116542219Y-75221966D01*
X116686966Y-75077219D01*
X116686968Y-75077215D01*
X116686971Y-75077213D01*
X116739732Y-75004590D01*
X116807287Y-74911610D01*
X116900220Y-74729219D01*
X116963477Y-74534534D01*
X116995500Y-74332352D01*
X116995500Y-74127648D01*
X116963477Y-73925465D01*
X116927068Y-73813410D01*
X116900220Y-73730781D01*
X116900218Y-73730778D01*
X116900218Y-73730776D01*
X116866503Y-73664607D01*
X116807287Y-73548390D01*
X116770471Y-73497717D01*
X116686969Y-73382784D01*
X116542219Y-73238034D01*
X116464348Y-73181458D01*
X116448547Y-73169978D01*
X116405882Y-73114649D01*
X116399903Y-73045036D01*
X116432508Y-72983240D01*
X116482426Y-72951955D01*
X116564334Y-72924814D01*
X116713656Y-72832712D01*
X116837712Y-72708656D01*
X116929814Y-72559334D01*
X116984999Y-72392797D01*
X116995500Y-72290009D01*
X116995499Y-71587648D01*
X122014500Y-71587648D01*
X122014500Y-71792351D01*
X122046522Y-71994534D01*
X122109781Y-72189223D01*
X122202715Y-72371613D01*
X122323028Y-72537213D01*
X122467786Y-72681971D01*
X122622749Y-72794556D01*
X122633390Y-72802287D01*
X122724840Y-72848883D01*
X122726080Y-72849515D01*
X122776876Y-72897490D01*
X122793671Y-72965311D01*
X122771134Y-73031446D01*
X122726080Y-73070485D01*
X122633386Y-73117715D01*
X122467786Y-73238028D01*
X122467782Y-73238032D01*
X122323034Y-73382781D01*
X122323031Y-73382784D01*
X122202715Y-73548386D01*
X122109781Y-73730776D01*
X122046522Y-73925465D01*
X122014500Y-74127648D01*
X122014500Y-74332351D01*
X122046522Y-74534534D01*
X122109781Y-74729223D01*
X122202715Y-74911613D01*
X122323028Y-75077213D01*
X122467786Y-75221971D01*
X122591717Y-75312010D01*
X122633390Y-75342287D01*
X122724840Y-75388883D01*
X122726080Y-75389515D01*
X122776876Y-75437490D01*
X122793671Y-75505311D01*
X122771134Y-75571446D01*
X122726080Y-75610485D01*
X122633386Y-75657715D01*
X122467786Y-75778028D01*
X122323028Y-75922786D01*
X122202715Y-76088386D01*
X122109781Y-76270776D01*
X122046522Y-76465465D01*
X122014500Y-76667648D01*
X122014500Y-76872351D01*
X122046522Y-77074534D01*
X122109781Y-77269223D01*
X122202715Y-77451613D01*
X122323028Y-77617213D01*
X122467786Y-77761971D01*
X122622749Y-77874556D01*
X122633390Y-77882287D01*
X122724840Y-77928883D01*
X122726080Y-77929515D01*
X122776876Y-77977490D01*
X122793671Y-78045311D01*
X122771134Y-78111446D01*
X122726080Y-78150485D01*
X122633386Y-78197715D01*
X122467786Y-78318028D01*
X122323028Y-78462786D01*
X122202715Y-78628386D01*
X122109781Y-78810776D01*
X122046522Y-79005465D01*
X122014500Y-79207648D01*
X122014500Y-79412351D01*
X122046522Y-79614534D01*
X122109781Y-79809223D01*
X122172846Y-79932993D01*
X122202585Y-79991359D01*
X122202715Y-79991613D01*
X122323028Y-80157213D01*
X122467786Y-80301971D01*
X122588226Y-80389474D01*
X122633390Y-80422287D01*
X122741771Y-80477510D01*
X122815776Y-80515218D01*
X122815778Y-80515218D01*
X122815781Y-80515220D01*
X122916249Y-80547864D01*
X123010465Y-80578477D01*
X123111557Y-80594488D01*
X123212648Y-80610500D01*
X123212649Y-80610500D01*
X123417351Y-80610500D01*
X123417352Y-80610500D01*
X123619534Y-80578477D01*
X123814219Y-80515220D01*
X123996610Y-80422287D01*
X124089590Y-80354732D01*
X124162213Y-80301971D01*
X124162215Y-80301968D01*
X124162219Y-80301966D01*
X124306966Y-80157219D01*
X124306968Y-80157215D01*
X124306971Y-80157213D01*
X124392322Y-80039735D01*
X124427287Y-79991610D01*
X124520220Y-79809219D01*
X124575442Y-79639262D01*
X125220000Y-79639262D01*
X125220000Y-79840737D01*
X125251518Y-80039735D01*
X125313775Y-80231346D01*
X125313776Y-80231349D01*
X125405248Y-80410869D01*
X125434842Y-80451602D01*
X125434843Y-80451603D01*
X126017037Y-79869409D01*
X126034075Y-79932993D01*
X126099901Y-80047007D01*
X126192993Y-80140099D01*
X126307007Y-80205925D01*
X126370590Y-80222962D01*
X125788395Y-80805155D01*
X125829133Y-80834753D01*
X126008650Y-80926223D01*
X126008653Y-80926224D01*
X126200264Y-80988481D01*
X126399263Y-81020000D01*
X126600737Y-81020000D01*
X126799735Y-80988481D01*
X126991346Y-80926224D01*
X126991349Y-80926223D01*
X127170866Y-80834753D01*
X127211602Y-80805156D01*
X127211602Y-80805155D01*
X126629409Y-80222962D01*
X126692993Y-80205925D01*
X126807007Y-80140099D01*
X126900099Y-80047007D01*
X126965925Y-79932993D01*
X126982962Y-79869409D01*
X127565155Y-80451602D01*
X127565156Y-80451602D01*
X127594753Y-80410866D01*
X127686223Y-80231349D01*
X127686224Y-80231346D01*
X127748481Y-80039735D01*
X127780000Y-79840737D01*
X127780000Y-79639262D01*
X127748481Y-79440264D01*
X127686224Y-79248653D01*
X127686223Y-79248650D01*
X127594753Y-79069133D01*
X127565155Y-79028396D01*
X127565155Y-79028395D01*
X126982962Y-79610589D01*
X126965925Y-79547007D01*
X126900099Y-79432993D01*
X126807007Y-79339901D01*
X126692993Y-79274075D01*
X126629408Y-79257037D01*
X126974311Y-78912135D01*
X130219500Y-78912135D01*
X130219500Y-80567870D01*
X130219501Y-80567876D01*
X130225908Y-80627483D01*
X130276202Y-80762328D01*
X130276206Y-80762335D01*
X130362452Y-80877544D01*
X130362455Y-80877547D01*
X130477664Y-80963793D01*
X130477671Y-80963797D01*
X130612517Y-81014091D01*
X130612516Y-81014091D01*
X130619444Y-81014835D01*
X130672127Y-81020500D01*
X132327872Y-81020499D01*
X132387483Y-81014091D01*
X132522331Y-80963796D01*
X132637546Y-80877546D01*
X132723796Y-80762331D01*
X132774091Y-80627483D01*
X132780500Y-80567873D01*
X132780499Y-79381902D01*
X136370285Y-79381902D01*
X136370285Y-79618097D01*
X136407231Y-79851368D01*
X136480218Y-80075996D01*
X136521601Y-80157213D01*
X136587442Y-80286433D01*
X136726268Y-80477510D01*
X136893275Y-80644517D01*
X137084352Y-80783343D01*
X137183776Y-80834002D01*
X137294788Y-80890566D01*
X137294790Y-80890566D01*
X137294793Y-80890568D01*
X137404531Y-80926224D01*
X137519416Y-80963553D01*
X137752688Y-81000500D01*
X137752693Y-81000500D01*
X137988882Y-81000500D01*
X138222153Y-80963553D01*
X138446777Y-80890568D01*
X138657218Y-80783343D01*
X138848295Y-80644517D01*
X139015302Y-80477510D01*
X139154128Y-80286433D01*
X139261353Y-80075992D01*
X139334338Y-79851368D01*
X139341014Y-79809219D01*
X139371285Y-79618097D01*
X139371285Y-79381902D01*
X139334338Y-79148631D01*
X139295271Y-79028396D01*
X139261353Y-78924008D01*
X139261351Y-78924005D01*
X139261351Y-78924003D01*
X139187161Y-78778398D01*
X139154128Y-78713567D01*
X139015302Y-78522490D01*
X138944947Y-78452135D01*
X141370285Y-78452135D01*
X141370285Y-80547870D01*
X141370286Y-80547876D01*
X141376693Y-80607483D01*
X141426987Y-80742328D01*
X141426991Y-80742335D01*
X141513237Y-80857544D01*
X141513240Y-80857547D01*
X141628449Y-80943793D01*
X141628456Y-80943797D01*
X141763302Y-80994091D01*
X141763301Y-80994091D01*
X141770229Y-80994835D01*
X141822912Y-81000500D01*
X143918657Y-81000499D01*
X143978268Y-80994091D01*
X144113116Y-80943796D01*
X144228331Y-80857546D01*
X144314581Y-80742331D01*
X144364876Y-80607483D01*
X144371285Y-80547873D01*
X144371284Y-78452128D01*
X144364876Y-78392517D01*
X144360428Y-78380592D01*
X144314582Y-78257671D01*
X144314578Y-78257664D01*
X144228332Y-78142455D01*
X144228329Y-78142452D01*
X144113120Y-78056206D01*
X144113113Y-78056202D01*
X143978267Y-78005908D01*
X143978268Y-78005908D01*
X143918668Y-77999501D01*
X143918666Y-77999500D01*
X143918658Y-77999500D01*
X143918649Y-77999500D01*
X141822914Y-77999500D01*
X141822908Y-77999501D01*
X141763301Y-78005908D01*
X141628456Y-78056202D01*
X141628449Y-78056206D01*
X141513240Y-78142452D01*
X141513237Y-78142455D01*
X141426991Y-78257664D01*
X141426987Y-78257671D01*
X141376693Y-78392517D01*
X141370286Y-78452116D01*
X141370286Y-78452123D01*
X141370285Y-78452135D01*
X138944947Y-78452135D01*
X138848295Y-78355483D01*
X138657218Y-78216657D01*
X138620890Y-78198147D01*
X138446781Y-78109433D01*
X138222153Y-78036446D01*
X137988882Y-77999500D01*
X137988877Y-77999500D01*
X137752693Y-77999500D01*
X137752688Y-77999500D01*
X137519416Y-78036446D01*
X137294788Y-78109433D01*
X137084351Y-78216657D01*
X137027904Y-78257669D01*
X136893275Y-78355483D01*
X136893273Y-78355485D01*
X136893272Y-78355485D01*
X136726270Y-78522487D01*
X136726270Y-78522488D01*
X136726268Y-78522490D01*
X136681523Y-78584076D01*
X136587442Y-78713566D01*
X136480218Y-78924003D01*
X136407231Y-79148631D01*
X136370285Y-79381902D01*
X132780499Y-79381902D01*
X132780499Y-78912128D01*
X132774091Y-78852517D01*
X132764858Y-78827763D01*
X132723797Y-78717671D01*
X132723793Y-78717664D01*
X132637547Y-78602455D01*
X132637544Y-78602452D01*
X132522335Y-78516206D01*
X132522328Y-78516202D01*
X132387482Y-78465908D01*
X132387483Y-78465908D01*
X132327883Y-78459501D01*
X132327881Y-78459500D01*
X132327873Y-78459500D01*
X132327864Y-78459500D01*
X130672129Y-78459500D01*
X130672123Y-78459501D01*
X130612516Y-78465908D01*
X130477671Y-78516202D01*
X130477664Y-78516206D01*
X130362455Y-78602452D01*
X130362452Y-78602455D01*
X130276206Y-78717664D01*
X130276202Y-78717671D01*
X130225908Y-78852517D01*
X130219501Y-78912116D01*
X130219501Y-78912123D01*
X130219500Y-78912135D01*
X126974311Y-78912135D01*
X127211603Y-78674843D01*
X127211602Y-78674842D01*
X127170869Y-78645248D01*
X126991349Y-78553776D01*
X126991346Y-78553775D01*
X126799735Y-78491518D01*
X126600737Y-78460000D01*
X126399263Y-78460000D01*
X126200264Y-78491518D01*
X126008653Y-78553775D01*
X126008650Y-78553776D01*
X125829135Y-78645245D01*
X125829133Y-78645246D01*
X125788396Y-78674842D01*
X125788396Y-78674843D01*
X126370591Y-79257037D01*
X126307007Y-79274075D01*
X126192993Y-79339901D01*
X126099901Y-79432993D01*
X126034075Y-79547007D01*
X126017037Y-79610590D01*
X125434843Y-79028396D01*
X125434842Y-79028396D01*
X125405246Y-79069133D01*
X125405245Y-79069135D01*
X125313776Y-79248650D01*
X125313775Y-79248653D01*
X125251518Y-79440264D01*
X125220000Y-79639262D01*
X124575442Y-79639262D01*
X124583477Y-79614534D01*
X124592811Y-79555606D01*
X124615500Y-79412351D01*
X124615500Y-79207648D01*
X124583477Y-79005465D01*
X124533781Y-78852517D01*
X124520220Y-78810781D01*
X124520218Y-78810778D01*
X124520217Y-78810773D01*
X124503721Y-78778398D01*
X124503720Y-78778397D01*
X124450956Y-78674843D01*
X124427287Y-78628390D01*
X124395092Y-78584077D01*
X124306971Y-78462786D01*
X124162213Y-78318028D01*
X123996614Y-78197715D01*
X123990006Y-78194348D01*
X123903917Y-78150483D01*
X123853123Y-78102511D01*
X123836328Y-78034690D01*
X123858865Y-77968555D01*
X123903917Y-77929516D01*
X123996610Y-77882287D01*
X124017770Y-77866913D01*
X124162213Y-77761971D01*
X124162215Y-77761968D01*
X124162219Y-77761966D01*
X124306966Y-77617219D01*
X124306968Y-77617215D01*
X124306971Y-77617213D01*
X124359732Y-77544590D01*
X124427287Y-77451610D01*
X124520220Y-77269219D01*
X124583477Y-77074534D01*
X124615500Y-76872352D01*
X124615500Y-76667648D01*
X124583477Y-76465466D01*
X124581788Y-76460269D01*
X124520218Y-76270776D01*
X124486503Y-76204607D01*
X124427287Y-76088390D01*
X124419556Y-76077749D01*
X124306971Y-75922786D01*
X124162213Y-75778028D01*
X123996614Y-75657715D01*
X123990006Y-75654348D01*
X123903917Y-75610483D01*
X123853123Y-75562511D01*
X123836328Y-75494690D01*
X123858865Y-75428555D01*
X123903917Y-75389516D01*
X123996610Y-75342287D01*
X124149039Y-75231542D01*
X124162213Y-75221971D01*
X124162215Y-75221968D01*
X124162219Y-75221966D01*
X124306966Y-75077219D01*
X124306968Y-75077215D01*
X124306971Y-75077213D01*
X124359732Y-75004590D01*
X124427287Y-74911610D01*
X124520220Y-74729219D01*
X124549464Y-74639216D01*
X127719500Y-74639216D01*
X127719500Y-74840783D01*
X127751030Y-75039852D01*
X127813312Y-75231539D01*
X127813314Y-75231542D01*
X127904818Y-75411129D01*
X128023289Y-75574190D01*
X128165810Y-75716711D01*
X128328871Y-75835182D01*
X128500794Y-75922781D01*
X128508460Y-75926687D01*
X128604303Y-75957828D01*
X128700149Y-75988970D01*
X128792348Y-76003572D01*
X128899217Y-76020500D01*
X128899222Y-76020500D01*
X129100783Y-76020500D01*
X129197289Y-76005214D01*
X129299851Y-75988970D01*
X129491542Y-75926686D01*
X129671129Y-75835182D01*
X129834190Y-75716711D01*
X129976711Y-75574190D01*
X130095182Y-75411129D01*
X130186686Y-75231542D01*
X130248970Y-75039851D01*
X130269281Y-74911613D01*
X130280500Y-74840783D01*
X130280500Y-74639216D01*
X130262156Y-74523408D01*
X130248970Y-74440149D01*
X130186686Y-74248458D01*
X130095182Y-74068871D01*
X129976711Y-73905810D01*
X129834190Y-73763289D01*
X129671129Y-73644818D01*
X129589865Y-73603412D01*
X129491539Y-73553312D01*
X129299852Y-73491030D01*
X129100783Y-73459500D01*
X129100778Y-73459500D01*
X128899222Y-73459500D01*
X128899217Y-73459500D01*
X128700147Y-73491030D01*
X128508460Y-73553312D01*
X128328870Y-73644818D01*
X128235838Y-73712410D01*
X128165810Y-73763289D01*
X128165808Y-73763291D01*
X128165807Y-73763291D01*
X128023291Y-73905807D01*
X128023291Y-73905808D01*
X128023289Y-73905810D01*
X128009009Y-73925465D01*
X127904818Y-74068870D01*
X127813312Y-74248460D01*
X127751030Y-74440147D01*
X127719500Y-74639216D01*
X124549464Y-74639216D01*
X124583477Y-74534534D01*
X124615500Y-74332352D01*
X124615500Y-74127648D01*
X124583478Y-73925472D01*
X124583477Y-73925471D01*
X124583477Y-73925466D01*
X124578825Y-73911151D01*
X124578391Y-73895940D01*
X124573074Y-73881683D01*
X124577414Y-73861728D01*
X124576832Y-73841312D01*
X124584920Y-73827225D01*
X124587926Y-73813410D01*
X124609074Y-73785159D01*
X124774506Y-73619728D01*
X124774511Y-73619724D01*
X124784714Y-73609520D01*
X124784716Y-73609520D01*
X124896520Y-73497716D01*
X124962877Y-73382781D01*
X124975577Y-73360785D01*
X125016500Y-73208057D01*
X125016500Y-73049943D01*
X125016500Y-67921428D01*
X134121461Y-67921428D01*
X134121461Y-68094650D01*
X134129638Y-68146278D01*
X134147359Y-68258167D01*
X134148559Y-68265740D01*
X134202088Y-68430484D01*
X134280729Y-68584827D01*
X134382547Y-68724967D01*
X134505033Y-68847453D01*
X134645173Y-68949271D01*
X134799516Y-69027912D01*
X134898605Y-69060108D01*
X134956281Y-69099546D01*
X134983479Y-69163904D01*
X134971564Y-69232751D01*
X134924320Y-69284226D01*
X134898606Y-69295969D01*
X134799516Y-69328166D01*
X134799513Y-69328167D01*
X134645172Y-69406807D01*
X134565217Y-69464898D01*
X134505033Y-69508625D01*
X134505031Y-69508627D01*
X134505030Y-69508627D01*
X134382549Y-69631108D01*
X134382549Y-69631109D01*
X134382547Y-69631111D01*
X134338820Y-69691295D01*
X134280729Y-69771250D01*
X134202089Y-69925591D01*
X134148558Y-70090341D01*
X134121461Y-70261428D01*
X134121461Y-70834649D01*
X134145622Y-70987200D01*
X134148559Y-71005740D01*
X134202088Y-71170484D01*
X134280729Y-71324827D01*
X134382547Y-71464967D01*
X134505033Y-71587453D01*
X134645173Y-71689271D01*
X134799516Y-71767912D01*
X134964260Y-71821441D01*
X135135350Y-71848539D01*
X135135351Y-71848539D01*
X135308571Y-71848539D01*
X135308572Y-71848539D01*
X135479662Y-71821441D01*
X135644406Y-71767912D01*
X135798749Y-71689271D01*
X135938889Y-71587453D01*
X136061375Y-71464967D01*
X136163193Y-71324827D01*
X136241834Y-71170484D01*
X136295363Y-71005740D01*
X136322461Y-70834650D01*
X136322461Y-70502539D01*
X136342146Y-70435500D01*
X136394950Y-70389745D01*
X136446461Y-70378539D01*
X136578571Y-70378539D01*
X136578572Y-70378539D01*
X136749662Y-70351441D01*
X136914406Y-70297912D01*
X137068749Y-70219271D01*
X137208889Y-70117453D01*
X137331375Y-69994967D01*
X137433193Y-69854827D01*
X137511834Y-69700484D01*
X137565363Y-69535740D01*
X137592461Y-69364650D01*
X137592461Y-69191428D01*
X137565363Y-69020338D01*
X137511834Y-68855594D01*
X137433193Y-68701251D01*
X137331375Y-68561111D01*
X137208889Y-68438625D01*
X137068749Y-68336807D01*
X136914406Y-68258166D01*
X136749662Y-68204637D01*
X136749660Y-68204636D01*
X136749659Y-68204636D01*
X136618232Y-68183820D01*
X136578572Y-68177539D01*
X136446461Y-68177539D01*
X136379422Y-68157854D01*
X136333667Y-68105050D01*
X136322461Y-68053539D01*
X136322461Y-67921428D01*
X136319641Y-67903621D01*
X136295363Y-67750338D01*
X136241834Y-67585594D01*
X136163193Y-67431251D01*
X136061375Y-67291111D01*
X135938889Y-67168625D01*
X135798749Y-67066807D01*
X135644406Y-66988166D01*
X135479662Y-66934637D01*
X135479660Y-66934636D01*
X135479659Y-66934636D01*
X135348232Y-66913820D01*
X135308572Y-66907539D01*
X135135350Y-66907539D01*
X135095689Y-66913820D01*
X134964263Y-66934636D01*
X134799513Y-66988167D01*
X134645172Y-67066807D01*
X134565217Y-67124898D01*
X134505033Y-67168625D01*
X134505031Y-67168627D01*
X134505030Y-67168627D01*
X134382549Y-67291108D01*
X134382549Y-67291109D01*
X134382547Y-67291111D01*
X134338820Y-67351295D01*
X134280729Y-67431250D01*
X134202089Y-67585591D01*
X134148558Y-67750341D01*
X134136209Y-67828313D01*
X134121461Y-67921428D01*
X125016500Y-67921428D01*
X125016500Y-64019983D01*
X126079500Y-64019983D01*
X126079500Y-65220001D01*
X126079501Y-65220018D01*
X126090000Y-65322796D01*
X126090001Y-65322799D01*
X126106818Y-65373548D01*
X126145186Y-65489334D01*
X126237288Y-65638656D01*
X126361344Y-65762712D01*
X126510666Y-65854814D01*
X126677203Y-65909999D01*
X126779991Y-65920500D01*
X127980008Y-65920499D01*
X128082797Y-65909999D01*
X128249334Y-65854814D01*
X128398656Y-65762712D01*
X128522712Y-65638656D01*
X128614814Y-65489334D01*
X128641955Y-65407427D01*
X128681726Y-65349984D01*
X128746242Y-65323161D01*
X128815018Y-65335476D01*
X128859977Y-65373547D01*
X128928030Y-65467213D01*
X128928034Y-65467219D01*
X129072786Y-65611971D01*
X129193226Y-65699474D01*
X129238390Y-65732287D01*
X129354607Y-65791503D01*
X129420776Y-65825218D01*
X129420778Y-65825218D01*
X129420781Y-65825220D01*
X129511856Y-65854812D01*
X129615465Y-65888477D01*
X129716557Y-65904488D01*
X129817648Y-65920500D01*
X129817649Y-65920500D01*
X130022351Y-65920500D01*
X130022352Y-65920500D01*
X130224534Y-65888477D01*
X130419219Y-65825220D01*
X130601610Y-65732287D01*
X130730482Y-65638657D01*
X130767213Y-65611971D01*
X130767215Y-65611968D01*
X130767219Y-65611966D01*
X130911966Y-65467219D01*
X130911968Y-65467215D01*
X130911971Y-65467213D01*
X131032284Y-65301614D01*
X131032286Y-65301611D01*
X131032287Y-65301610D01*
X131079516Y-65208917D01*
X131127489Y-65158123D01*
X131195310Y-65141328D01*
X131261445Y-65163865D01*
X131300483Y-65208917D01*
X131306140Y-65220018D01*
X131347715Y-65301614D01*
X131468028Y-65467213D01*
X131612786Y-65611971D01*
X131733226Y-65699474D01*
X131778390Y-65732287D01*
X131894607Y-65791503D01*
X131960776Y-65825218D01*
X131960778Y-65825218D01*
X131960781Y-65825220D01*
X132051856Y-65854812D01*
X132155465Y-65888477D01*
X132256557Y-65904488D01*
X132357648Y-65920500D01*
X132357649Y-65920500D01*
X132562351Y-65920500D01*
X132562352Y-65920500D01*
X132764534Y-65888477D01*
X132959219Y-65825220D01*
X133141610Y-65732287D01*
X133270482Y-65638657D01*
X133307213Y-65611971D01*
X133307215Y-65611968D01*
X133307219Y-65611966D01*
X133451966Y-65467219D01*
X133451968Y-65467215D01*
X133451971Y-65467213D01*
X133556894Y-65322797D01*
X133572287Y-65301610D01*
X133619795Y-65208369D01*
X133667769Y-65157573D01*
X133735590Y-65140778D01*
X133801725Y-65163315D01*
X133840765Y-65208369D01*
X133888141Y-65301350D01*
X133888147Y-65301359D01*
X133920523Y-65345921D01*
X133920524Y-65345922D01*
X134600000Y-64666446D01*
X134600000Y-64672661D01*
X134627259Y-64774394D01*
X134679920Y-64865606D01*
X134754394Y-64940080D01*
X134845606Y-64992741D01*
X134947339Y-65020000D01*
X134953553Y-65020000D01*
X134274076Y-65699474D01*
X134318650Y-65731859D01*
X134500968Y-65824755D01*
X134695582Y-65887990D01*
X134897683Y-65920000D01*
X135102317Y-65920000D01*
X135304417Y-65887990D01*
X135499031Y-65824755D01*
X135681349Y-65731859D01*
X135725921Y-65699474D01*
X135046447Y-65020000D01*
X135052661Y-65020000D01*
X135154394Y-64992741D01*
X135245606Y-64940080D01*
X135320080Y-64865606D01*
X135372741Y-64774394D01*
X135400000Y-64672661D01*
X135400000Y-64666447D01*
X136079474Y-65345921D01*
X136111859Y-65301349D01*
X136204755Y-65119031D01*
X136267990Y-64924417D01*
X136300000Y-64722317D01*
X136300000Y-64517682D01*
X136267990Y-64315582D01*
X136204755Y-64120968D01*
X136111859Y-63938650D01*
X136079474Y-63894077D01*
X136079474Y-63894076D01*
X135400000Y-64573551D01*
X135400000Y-64567339D01*
X135372741Y-64465606D01*
X135320080Y-64374394D01*
X135245606Y-64299920D01*
X135154394Y-64247259D01*
X135052661Y-64220000D01*
X135046446Y-64220000D01*
X135725922Y-63540524D01*
X135725921Y-63540523D01*
X135681359Y-63508147D01*
X135681350Y-63508141D01*
X135499031Y-63415244D01*
X135304417Y-63352009D01*
X135102317Y-63320000D01*
X134897683Y-63320000D01*
X134695582Y-63352009D01*
X134500968Y-63415244D01*
X134318644Y-63508143D01*
X134274077Y-63540523D01*
X134274077Y-63540524D01*
X134953554Y-64220000D01*
X134947339Y-64220000D01*
X134845606Y-64247259D01*
X134754394Y-64299920D01*
X134679920Y-64374394D01*
X134627259Y-64465606D01*
X134600000Y-64567339D01*
X134600000Y-64573553D01*
X133920524Y-63894077D01*
X133920523Y-63894077D01*
X133888143Y-63938644D01*
X133840765Y-64031630D01*
X133792790Y-64082426D01*
X133724969Y-64099221D01*
X133658834Y-64076683D01*
X133619795Y-64031630D01*
X133572284Y-63938385D01*
X133451971Y-63772786D01*
X133307213Y-63628028D01*
X133141613Y-63507715D01*
X133141612Y-63507714D01*
X133141610Y-63507713D01*
X133081898Y-63477288D01*
X132959223Y-63414781D01*
X132764534Y-63351522D01*
X132589995Y-63323878D01*
X132562352Y-63319500D01*
X132357648Y-63319500D01*
X132333329Y-63323351D01*
X132155465Y-63351522D01*
X131960776Y-63414781D01*
X131778386Y-63507715D01*
X131612786Y-63628028D01*
X131468028Y-63772786D01*
X131347715Y-63938386D01*
X131300485Y-64031080D01*
X131252510Y-64081876D01*
X131184689Y-64098671D01*
X131118554Y-64076134D01*
X131079515Y-64031080D01*
X131032419Y-63938650D01*
X131032287Y-63938390D01*
X131000092Y-63894077D01*
X130911971Y-63772786D01*
X130767213Y-63628028D01*
X130601613Y-63507715D01*
X130601612Y-63507714D01*
X130601610Y-63507713D01*
X130541898Y-63477288D01*
X130419223Y-63414781D01*
X130224534Y-63351522D01*
X130049995Y-63323878D01*
X130022352Y-63319500D01*
X129817648Y-63319500D01*
X129793329Y-63323351D01*
X129615465Y-63351522D01*
X129420776Y-63414781D01*
X129238386Y-63507715D01*
X129072786Y-63628028D01*
X128928032Y-63772782D01*
X128928028Y-63772787D01*
X128859978Y-63866451D01*
X128804648Y-63909117D01*
X128735035Y-63915096D01*
X128673240Y-63882490D01*
X128641954Y-63832570D01*
X128622144Y-63772787D01*
X128614814Y-63750666D01*
X128522712Y-63601344D01*
X128398656Y-63477288D01*
X128249334Y-63385186D01*
X128082797Y-63330001D01*
X128082795Y-63330000D01*
X127980010Y-63319500D01*
X126779998Y-63319500D01*
X126779981Y-63319501D01*
X126677203Y-63330000D01*
X126677200Y-63330001D01*
X126510668Y-63385185D01*
X126510663Y-63385187D01*
X126361342Y-63477289D01*
X126237289Y-63601342D01*
X126145187Y-63750663D01*
X126145186Y-63750666D01*
X126090001Y-63917203D01*
X126090001Y-63917204D01*
X126090000Y-63917204D01*
X126079500Y-64019983D01*
X125016500Y-64019983D01*
X125016500Y-60264096D01*
X125036185Y-60197057D01*
X125052814Y-60176420D01*
X126935158Y-58294075D01*
X126996479Y-58260592D01*
X127061151Y-58263825D01*
X127075466Y-58268477D01*
X127277648Y-58300500D01*
X127277649Y-58300500D01*
X127482351Y-58300500D01*
X127482352Y-58300500D01*
X127684534Y-58268477D01*
X127879219Y-58205220D01*
X128061610Y-58112287D01*
X128154590Y-58044732D01*
X128227213Y-57991971D01*
X128227215Y-57991968D01*
X128227219Y-57991966D01*
X128371966Y-57847219D01*
X128371968Y-57847215D01*
X128371971Y-57847213D01*
X128492284Y-57681614D01*
X128492285Y-57681613D01*
X128492287Y-57681610D01*
X128539516Y-57588917D01*
X128587489Y-57538123D01*
X128655310Y-57521328D01*
X128721445Y-57543865D01*
X128760483Y-57588917D01*
X128804348Y-57675006D01*
X128807715Y-57681614D01*
X128928028Y-57847213D01*
X129072786Y-57991971D01*
X129227749Y-58104556D01*
X129238390Y-58112287D01*
X129354607Y-58171503D01*
X129420776Y-58205218D01*
X129420778Y-58205218D01*
X129420781Y-58205220D01*
X129525137Y-58239127D01*
X129615465Y-58268477D01*
X129716557Y-58284488D01*
X129817648Y-58300500D01*
X129817649Y-58300500D01*
X130022351Y-58300500D01*
X130022352Y-58300500D01*
X130224534Y-58268477D01*
X130419219Y-58205220D01*
X130601610Y-58112287D01*
X130694590Y-58044732D01*
X130767213Y-57991971D01*
X130767215Y-57991968D01*
X130767219Y-57991966D01*
X130911966Y-57847219D01*
X130911968Y-57847215D01*
X130911971Y-57847213D01*
X131032284Y-57681614D01*
X131032285Y-57681613D01*
X131032287Y-57681610D01*
X131079516Y-57588917D01*
X131127489Y-57538123D01*
X131195310Y-57521328D01*
X131261445Y-57543865D01*
X131300483Y-57588917D01*
X131344348Y-57675006D01*
X131347715Y-57681614D01*
X131468028Y-57847213D01*
X131612786Y-57991971D01*
X131767749Y-58104556D01*
X131778390Y-58112287D01*
X131894607Y-58171503D01*
X131960776Y-58205218D01*
X131960778Y-58205218D01*
X131960781Y-58205220D01*
X132065137Y-58239127D01*
X132155465Y-58268477D01*
X132256557Y-58284488D01*
X132357648Y-58300500D01*
X132357649Y-58300500D01*
X132562351Y-58300500D01*
X132562352Y-58300500D01*
X132764534Y-58268477D01*
X132959219Y-58205220D01*
X133141610Y-58112287D01*
X133234590Y-58044732D01*
X133307213Y-57991971D01*
X133307215Y-57991968D01*
X133307219Y-57991966D01*
X133451966Y-57847219D01*
X133451968Y-57847215D01*
X133451971Y-57847213D01*
X133572284Y-57681614D01*
X133572285Y-57681613D01*
X133572287Y-57681610D01*
X133619516Y-57588917D01*
X133667489Y-57538123D01*
X133735310Y-57521328D01*
X133801445Y-57543865D01*
X133840483Y-57588917D01*
X133884348Y-57675006D01*
X133887715Y-57681614D01*
X134008028Y-57847213D01*
X134152786Y-57991971D01*
X134307749Y-58104556D01*
X134318390Y-58112287D01*
X134434607Y-58171503D01*
X134500776Y-58205218D01*
X134500778Y-58205218D01*
X134500781Y-58205220D01*
X134605137Y-58239127D01*
X134695465Y-58268477D01*
X134796557Y-58284488D01*
X134897648Y-58300500D01*
X134897649Y-58300500D01*
X135102351Y-58300500D01*
X135102352Y-58300500D01*
X135304534Y-58268477D01*
X135499219Y-58205220D01*
X135681610Y-58112287D01*
X135774590Y-58044732D01*
X135847213Y-57991971D01*
X135847215Y-57991968D01*
X135847219Y-57991966D01*
X135991966Y-57847219D01*
X135991968Y-57847215D01*
X135991971Y-57847213D01*
X136044732Y-57774590D01*
X136112287Y-57681610D01*
X136205220Y-57499219D01*
X136268477Y-57304534D01*
X136300500Y-57102352D01*
X136300500Y-56897648D01*
X136268477Y-56695466D01*
X136205220Y-56500781D01*
X136205218Y-56500778D01*
X136205218Y-56500776D01*
X136159515Y-56411080D01*
X136112287Y-56318390D01*
X136104556Y-56307749D01*
X135991971Y-56152786D01*
X135847213Y-56008028D01*
X135681613Y-55887715D01*
X135681612Y-55887714D01*
X135681610Y-55887713D01*
X135624653Y-55858691D01*
X135499223Y-55794781D01*
X135304534Y-55731522D01*
X135129995Y-55703878D01*
X135102352Y-55699500D01*
X134897648Y-55699500D01*
X134873329Y-55703351D01*
X134695465Y-55731522D01*
X134500776Y-55794781D01*
X134318386Y-55887715D01*
X134152786Y-56008028D01*
X134008028Y-56152786D01*
X133887715Y-56318386D01*
X133840485Y-56411080D01*
X133792510Y-56461876D01*
X133724689Y-56478671D01*
X133658554Y-56456134D01*
X133619515Y-56411080D01*
X133618883Y-56409840D01*
X133572287Y-56318390D01*
X133564556Y-56307749D01*
X133451971Y-56152786D01*
X133307213Y-56008028D01*
X133141613Y-55887715D01*
X133141612Y-55887714D01*
X133141610Y-55887713D01*
X133084653Y-55858691D01*
X132959223Y-55794781D01*
X132764534Y-55731522D01*
X132589995Y-55703878D01*
X132562352Y-55699500D01*
X132357648Y-55699500D01*
X132333329Y-55703351D01*
X132155465Y-55731522D01*
X131960776Y-55794781D01*
X131778386Y-55887715D01*
X131612786Y-56008028D01*
X131468028Y-56152786D01*
X131347715Y-56318386D01*
X131300485Y-56411080D01*
X131252510Y-56461876D01*
X131184689Y-56478671D01*
X131118554Y-56456134D01*
X131079515Y-56411080D01*
X131078883Y-56409840D01*
X131032287Y-56318390D01*
X131024556Y-56307749D01*
X130911971Y-56152786D01*
X130767213Y-56008028D01*
X130601613Y-55887715D01*
X130601612Y-55887714D01*
X130601610Y-55887713D01*
X130544653Y-55858691D01*
X130419223Y-55794781D01*
X130224534Y-55731522D01*
X130049995Y-55703878D01*
X130022352Y-55699500D01*
X129817648Y-55699500D01*
X129793329Y-55703351D01*
X129615465Y-55731522D01*
X129420776Y-55794781D01*
X129238386Y-55887715D01*
X129072786Y-56008028D01*
X128928028Y-56152786D01*
X128807715Y-56318386D01*
X128760485Y-56411080D01*
X128712510Y-56461876D01*
X128644689Y-56478671D01*
X128578554Y-56456134D01*
X128539515Y-56411080D01*
X128538883Y-56409840D01*
X128492287Y-56318390D01*
X128484556Y-56307749D01*
X128371971Y-56152786D01*
X128227213Y-56008028D01*
X128061613Y-55887715D01*
X128061612Y-55887714D01*
X128061610Y-55887713D01*
X128004653Y-55858691D01*
X127879223Y-55794781D01*
X127684534Y-55731522D01*
X127509995Y-55703878D01*
X127482352Y-55699500D01*
X127277648Y-55699500D01*
X127253329Y-55703351D01*
X127075465Y-55731522D01*
X126880776Y-55794781D01*
X126698386Y-55887715D01*
X126532786Y-56008028D01*
X126388028Y-56152786D01*
X126267715Y-56318386D01*
X126174781Y-56500776D01*
X126111522Y-56695465D01*
X126079500Y-56897648D01*
X126079500Y-57102351D01*
X126111522Y-57304534D01*
X126116173Y-57318848D01*
X126118165Y-57388690D01*
X126085921Y-57444842D01*
X124050599Y-59480164D01*
X124050592Y-59480171D01*
X124047286Y-59483478D01*
X124047284Y-59483480D01*
X123935480Y-59595284D01*
X123908098Y-59642712D01*
X123856423Y-59732215D01*
X123815499Y-59884943D01*
X123815499Y-59884945D01*
X123815499Y-60053046D01*
X123815500Y-60053059D01*
X123815500Y-70314524D01*
X123795815Y-70381563D01*
X123743011Y-70427318D01*
X123673853Y-70437262D01*
X123653183Y-70432455D01*
X123619542Y-70421524D01*
X123619535Y-70421523D01*
X123518443Y-70405511D01*
X123417352Y-70389500D01*
X123212648Y-70389500D01*
X123188329Y-70393351D01*
X123010465Y-70421522D01*
X122815776Y-70484781D01*
X122633386Y-70577715D01*
X122467786Y-70698028D01*
X122323028Y-70842786D01*
X122202715Y-71008386D01*
X122109781Y-71190776D01*
X122046522Y-71385465D01*
X122014500Y-71587648D01*
X116995499Y-71587648D01*
X116995499Y-71089992D01*
X116984999Y-70987203D01*
X116929814Y-70820666D01*
X116837712Y-70671344D01*
X116713656Y-70547288D01*
X116564334Y-70455186D01*
X116397797Y-70400001D01*
X116397795Y-70400000D01*
X116295010Y-70389500D01*
X115094998Y-70389500D01*
X115094981Y-70389501D01*
X114992203Y-70400000D01*
X114992200Y-70400001D01*
X114825668Y-70455185D01*
X114825663Y-70455187D01*
X114676342Y-70547289D01*
X114552289Y-70671342D01*
X114460187Y-70820663D01*
X114460186Y-70820666D01*
X114405001Y-70987203D01*
X114405001Y-70987204D01*
X114405000Y-70987204D01*
X114394500Y-71089983D01*
X114394500Y-72290001D01*
X114394501Y-72290018D01*
X114405000Y-72392796D01*
X114405001Y-72392799D01*
X114452856Y-72537213D01*
X114460186Y-72559334D01*
X114552288Y-72708656D01*
X114676344Y-72832712D01*
X114825666Y-72924814D01*
X114907570Y-72951954D01*
X114965015Y-72991727D01*
X114991838Y-73056243D01*
X114979523Y-73125018D01*
X114941451Y-73169978D01*
X114847787Y-73238028D01*
X114847782Y-73238032D01*
X114703034Y-73382781D01*
X114703031Y-73382784D01*
X114582715Y-73548386D01*
X114489781Y-73730776D01*
X114426522Y-73925465D01*
X114394500Y-74127648D01*
X114394500Y-74332351D01*
X114426522Y-74534534D01*
X114489781Y-74729223D01*
X114582715Y-74911613D01*
X114703028Y-75077213D01*
X114847786Y-75221971D01*
X114971717Y-75312010D01*
X115013390Y-75342287D01*
X115104840Y-75388883D01*
X115106080Y-75389515D01*
X115156876Y-75437490D01*
X115173671Y-75505311D01*
X115151134Y-75571446D01*
X115106080Y-75610485D01*
X115013386Y-75657715D01*
X114847786Y-75778028D01*
X114703028Y-75922786D01*
X114582715Y-76088385D01*
X114575883Y-76101795D01*
X114527909Y-76152591D01*
X114465398Y-76169500D01*
X111110098Y-76169500D01*
X111043059Y-76149815D01*
X111022417Y-76133181D01*
X110685364Y-75796128D01*
X110651879Y-75734805D01*
X110656863Y-75665113D01*
X110658449Y-75661081D01*
X110708606Y-75539993D01*
X110769693Y-75312014D01*
X110800500Y-75078011D01*
X110800500Y-74841989D01*
X110769693Y-74607986D01*
X110708606Y-74380007D01*
X110618284Y-74161951D01*
X110618282Y-74161948D01*
X110618280Y-74161943D01*
X110564544Y-74068871D01*
X110500273Y-73957550D01*
X110356592Y-73770301D01*
X110356587Y-73770295D01*
X110189704Y-73603412D01*
X110189697Y-73603406D01*
X110002454Y-73459730D01*
X110002453Y-73459729D01*
X110002450Y-73459727D01*
X109920957Y-73412677D01*
X109798056Y-73341719D01*
X109798049Y-73341716D01*
X109677046Y-73291594D01*
X109622643Y-73247752D01*
X109600579Y-73181458D01*
X109600500Y-73177033D01*
X109600500Y-68485624D01*
X109620185Y-68418585D01*
X109636819Y-68397943D01*
X109776596Y-68258166D01*
X109993662Y-68041099D01*
X110054983Y-68007616D01*
X110057150Y-68007165D01*
X110115085Y-67995640D01*
X110212497Y-67976264D01*
X110358179Y-67915921D01*
X110489289Y-67828316D01*
X110600789Y-67716816D01*
X110688394Y-67585706D01*
X110748737Y-67440024D01*
X110779500Y-67285369D01*
X110779500Y-67127685D01*
X110779500Y-67127682D01*
X110779499Y-67127680D01*
X110748737Y-66973030D01*
X110721610Y-66907539D01*
X110688397Y-66827354D01*
X110688390Y-66827341D01*
X110600789Y-66696238D01*
X110600786Y-66696234D01*
X110489292Y-66584740D01*
X110489288Y-66584737D01*
X110358185Y-66497136D01*
X110358172Y-66497129D01*
X110212501Y-66436791D01*
X110212489Y-66436788D01*
X110057845Y-66406027D01*
X110057842Y-66406027D01*
X109900158Y-66406027D01*
X109900155Y-66406027D01*
X109745510Y-66436788D01*
X109745498Y-66436791D01*
X109599827Y-66497129D01*
X109599814Y-66497136D01*
X109468711Y-66584737D01*
X109468707Y-66584740D01*
X109357213Y-66696234D01*
X109357210Y-66696238D01*
X109269609Y-66827341D01*
X109269602Y-66827354D01*
X109209264Y-66973025D01*
X109209261Y-66973035D01*
X109178361Y-67128377D01*
X109145976Y-67190288D01*
X109144425Y-67191866D01*
X108519481Y-67816809D01*
X108519479Y-67816812D01*
X108469361Y-67903621D01*
X108469359Y-67903623D01*
X108440425Y-67953736D01*
X108440424Y-67953737D01*
X108434388Y-67976264D01*
X108399499Y-68106470D01*
X108399499Y-68106472D01*
X108399499Y-68274573D01*
X108399500Y-68274586D01*
X108399500Y-73177033D01*
X108379815Y-73244072D01*
X108327011Y-73289827D01*
X108322954Y-73291594D01*
X108201950Y-73341716D01*
X108201943Y-73341719D01*
X107997545Y-73459730D01*
X107810302Y-73603406D01*
X107810295Y-73603412D01*
X107643412Y-73770295D01*
X107643406Y-73770302D01*
X107499730Y-73957545D01*
X107381719Y-74161943D01*
X107381714Y-74161954D01*
X107291394Y-74380006D01*
X107230306Y-74607989D01*
X107199501Y-74841979D01*
X107199500Y-74841995D01*
X105000500Y-74841995D01*
X105000500Y-57899983D01*
X117199500Y-57899983D01*
X117199500Y-59100001D01*
X117199501Y-59100018D01*
X117210000Y-59202796D01*
X117210001Y-59202799D01*
X117257856Y-59347213D01*
X117265186Y-59369334D01*
X117357288Y-59518656D01*
X117481344Y-59642712D01*
X117630666Y-59734814D01*
X117797203Y-59789999D01*
X117899991Y-59800500D01*
X119100008Y-59800499D01*
X119202797Y-59789999D01*
X119369334Y-59734814D01*
X119518656Y-59642712D01*
X119642712Y-59518656D01*
X119734814Y-59369334D01*
X119789999Y-59202797D01*
X119800500Y-59100009D01*
X119800499Y-58397648D01*
X120699500Y-58397648D01*
X120699500Y-58602351D01*
X120731522Y-58804534D01*
X120794781Y-58999223D01*
X120887715Y-59181613D01*
X121008028Y-59347213D01*
X121152786Y-59491971D01*
X121294987Y-59595284D01*
X121318390Y-59612287D01*
X121434607Y-59671503D01*
X121500776Y-59705218D01*
X121500778Y-59705218D01*
X121500781Y-59705220D01*
X121583857Y-59732213D01*
X121695465Y-59768477D01*
X121796557Y-59784488D01*
X121897648Y-59800500D01*
X121897649Y-59800500D01*
X122102351Y-59800500D01*
X122102352Y-59800500D01*
X122304534Y-59768477D01*
X122499219Y-59705220D01*
X122681610Y-59612287D01*
X122810482Y-59518657D01*
X122847213Y-59491971D01*
X122847215Y-59491968D01*
X122847219Y-59491966D01*
X122991966Y-59347219D01*
X122991968Y-59347215D01*
X122991971Y-59347213D01*
X123096892Y-59202799D01*
X123112287Y-59181610D01*
X123205220Y-58999219D01*
X123268477Y-58804534D01*
X123300500Y-58602352D01*
X123300500Y-58397648D01*
X123278792Y-58260592D01*
X123268477Y-58195465D01*
X123205218Y-58000776D01*
X123153865Y-57899991D01*
X123112287Y-57818390D01*
X123096892Y-57797200D01*
X122991971Y-57652786D01*
X122847213Y-57508028D01*
X122681613Y-57387715D01*
X122681612Y-57387714D01*
X122681610Y-57387713D01*
X122621898Y-57357288D01*
X122499223Y-57294781D01*
X122304534Y-57231522D01*
X122129995Y-57203878D01*
X122102352Y-57199500D01*
X121897648Y-57199500D01*
X121873329Y-57203351D01*
X121695465Y-57231522D01*
X121500776Y-57294781D01*
X121318386Y-57387715D01*
X121152786Y-57508028D01*
X121008028Y-57652786D01*
X120887715Y-57818386D01*
X120794781Y-58000776D01*
X120731522Y-58195465D01*
X120699500Y-58397648D01*
X119800499Y-58397648D01*
X119800499Y-57899992D01*
X119789999Y-57797203D01*
X119734814Y-57630666D01*
X119642712Y-57481344D01*
X119518656Y-57357288D01*
X119369334Y-57265186D01*
X119202797Y-57210001D01*
X119202795Y-57210000D01*
X119100010Y-57199500D01*
X117899998Y-57199500D01*
X117899981Y-57199501D01*
X117797203Y-57210000D01*
X117797200Y-57210001D01*
X117630668Y-57265185D01*
X117630663Y-57265187D01*
X117481342Y-57357289D01*
X117357289Y-57481342D01*
X117265187Y-57630663D01*
X117265186Y-57630666D01*
X117210001Y-57797203D01*
X117210001Y-57797204D01*
X117210000Y-57797204D01*
X117199500Y-57899983D01*
X105000500Y-57899983D01*
X105000500Y-52124500D01*
X105020185Y-52057461D01*
X105072989Y-52011706D01*
X105124500Y-52000500D01*
X147875500Y-52000500D01*
X147942539Y-52020185D01*
G37*
%TD.AperFunction*%
%TD*%
M02*
